<?xml version="1.0" encoding="utf-8"?>
<!-- Generator: Adobe Illustrator 19.1.0, SVG Export Plug-In . SVG Version: 6.00 Build 0)  -->
<svg version="1.1" id="Layer_1" xmlns="http://www.w3.org/2000/svg" xmlns:xlink="http://www.w3.org/1999/xlink" x="0px" y="0px"
	 viewBox="0 0 172.9 163.7" style="enable-background:new 0 0 172.9 163.7;" xml:space="preserve">
<style type="text/css">
	.st0{opacity:5.000000e-02;fill:#FFC82E;}
	.st1{fill:#968B83;}
	.st2{fill:#FFC82E;}
	.st3{fill:none;stroke:#FFC82E;stroke-width:5;stroke-miterlimit:10;}
	.st4{fill:none;stroke:#FFC82E;stroke-width:22.0845;stroke-miterlimit:10;}
	.st5{fill:none;stroke:#FFC82E;stroke-width:16;stroke-miterlimit:10;}
	.st6{fill:none;stroke:#968B83;stroke-width:9;stroke-miterlimit:10;}
	.st7{fill:none;stroke:#968B83;stroke-width:6.364;stroke-miterlimit:10;}
	.st8{fill:none;stroke:#FFC82E;stroke-width:6.3102;stroke-miterlimit:10;}
	.st9{fill:none;stroke:#FFC82E;stroke-width:3.6422;stroke-miterlimit:10;}
	.st10{fill:none;stroke:#968B83;stroke-width:9.0531;stroke-miterlimit:10;}
	.st11{fill:none;stroke:#FFC82E;stroke-width:5.4724;stroke-miterlimit:10;}
	.st12{fill:none;stroke:#FFC82E;stroke-width:2.7362;stroke-miterlimit:10;}
	.st13{fill:#FFC82E;stroke:#FFC82E;stroke-width:5;stroke-miterlimit:10;}
	.st14{fill:none;stroke:#968B83;stroke-width:8.3796;stroke-miterlimit:10;}
	.st15{fill:none;stroke:#968B83;stroke-width:5.9252;stroke-miterlimit:10;}
	.st16{fill:#FFFFFF;}
	.st17{opacity:0.31;fill:#FFFFFF;}
	.st18{fill:#F5F5F5;}
	.st19{fill:none;}
	.st20{fill-rule:evenodd;clip-rule:evenodd;fill:#FFFFFF;}
	.st21{fill:#6ECAC9;}
</style>
<path class="st16" d="M34.9,163.7H5.7c-3.1,0-5.7-2.5-5.7-5.7V5.7C0,2.5,2.5,0,5.7,0h29.3c0.8,0,1.5,0.7,1.5,1.5S35.8,3,34.9,3H5.7
	C4.2,3,3,4.2,3,5.7v152.4c0,1.5,1.2,2.7,2.7,2.7h29.3c0.8,0,1.5,0.7,1.5,1.5S35.8,163.7,34.9,163.7z"/>
<path class="st16" d="M167.2,163.7h-29.3c-0.8,0-1.5-0.7-1.5-1.5s0.7-1.5,1.5-1.5h29.3c1.5,0,2.7-1.2,2.7-2.7V5.7
	c0-1.5-1.2-2.7-2.7-2.7h-29.3c-0.8,0-1.5-0.7-1.5-1.5s0.7-1.5,1.5-1.5h29.3c3.1,0,5.7,2.5,5.7,5.7v152.4
	C172.9,161.2,170.3,163.7,167.2,163.7z"/>
<path class="st16" d="M145.8,139.1H26c-2.8,0-5-2.2-5-5s2.2-5,5-5h119.8c2.8,0,5,2.2,5,5S148.5,139.1,145.8,139.1z"/>
<polygon class="st19" points="60.7,98.9 39.5,98.9 44.8,108.1 50.1,117.3 55.4,108.1 "/>
<polygon class="st19" points="134.7,117.2 124.1,117.2 113.6,117.2 113.9,117.8 134.4,117.8 134.7,117.2 135.1,117.8 145,117.8 
	145,117.2 134.7,117.2 "/>
<polygon class="st19" points="113.6,117.2 118.8,108.1 124.1,98.9 124.1,98.9 118.8,108 113.6,117.2 108.3,108 103,98.9 81.8,98.9 
	87.1,108.1 92.4,117.2 92.7,117.8 113.2,117.8 113.6,117.2 "/>
<polygon class="st19" points="134.7,80.5 134.7,80.5 135.3,81.6 134.7,80.5 134.7,80.5 "/>
<polygon class="st19" points="71.2,117.3 71.2,117.3 60.7,117.3 50.1,117.3 50.1,117.3 39.5,117.3 28.9,117.3 34.2,108.1 39.5,98.9 
	28.4,98.9 28.4,117.8 70.9,117.8 "/>
<polygon class="st19" points="76.5,108.1 71.2,117.2 66,108.1 60.7,98.9 60.7,98.9 66,108.1 71.2,117.2 71.2,117.2 76.5,108.1 
	81.8,98.9 81.8,98.9 "/>
<polygon class="st19" points="70.4,51 50,86.4 90.8,86.4 "/>
<polygon class="st16" points="134.4,117.8 135.1,117.8 134.7,117.2 "/>
<path class="st16" d="M34.2,108.1l-5.3,9.2h10.6h10.6l-5.3-9.2l-5.3-9.1h21.2l-5.3,9.1l-5.3,9.2l0,0h10.6h10.6l0,0l-0.3,0.6h21.8
	l-0.3-0.6l-5.3-9.1l-5.3-9.1H103l5.2,9.1l5.3,9.2l5.3-9.2l5.3-9.1l0,0l-5.3,9.2l-5.3,9.2h0l-0.4,0.6h0.7l-0.4-0.6h10.6h10.6l0,0H145
	V98.9h-10.3h0h-10.6h0l0,0h-10.6h-1L70.4,25.8l-42,72.8v0.3h11.1L34.2,108.1z M76.5,108.1l-5.3,9.2h0l-5.3-9.1l-5.3-9.1h0l5.3,9.1
	l5.3,9.2L76.5,108.1l5.3-9.1h0L76.5,108.1z M70.4,51l20.4,35.4H50L70.4,51z"/>
<polygon class="st16" points="134.7,80.5 129.4,89.7 129.4,89.8 129.4,89.7 "/>
<polygon class="st16" points="113.5,43.9 113.6,43.9 118.8,53 124.1,62.2 129.4,53 134.7,44 124.1,25.6 118.8,34.7 "/>
<polygon class="st16" points="124.1,62.2 124.1,62.2 118.8,71.4 113.5,80.5 113.5,80.5 113.5,80.5 113.5,80.5 118.8,89.7 
	124.1,98.9 129.4,89.8 129.4,89.7 134.7,80.5 129.4,89.7 129.4,89.8 124.1,98.9 134.7,98.9 134.7,98.9 145,98.9 145,98.9 
	135.3,81.6 134.7,80.5 134.7,80.5 134.7,80.5 134.7,80.5 134.7,80.5 129.4,71.4 "/>
</svg>
