<?xml version="1.0" encoding="utf-8"?>
<!-- Generator: Adobe Illustrator 19.1.0, SVG Export Plug-In . SVG Version: 6.00 Build 0)  -->
<svg version="1.1" id="Layer_1" xmlns="http://www.w3.org/2000/svg" xmlns:xlink="http://www.w3.org/1999/xlink" x="0px" y="0px"
	 viewBox="0 0 124.9 118.4" style="enable-background:new 0 0 124.9 118.4;" xml:space="preserve">
<style type="text/css">
	.st0{opacity:5.000000e-02;fill:#FFC82E;}
	.st1{fill:#968B83;}
	.st2{fill:#FFC82E;}
	.st3{fill:none;stroke:#FFC82E;stroke-width:5;stroke-miterlimit:10;}
	.st4{fill:none;stroke:#FFC82E;stroke-width:22.0845;stroke-miterlimit:10;}
	.st5{fill:none;stroke:#FFC82E;stroke-width:16;stroke-miterlimit:10;}
	.st6{fill:none;stroke:#968B83;stroke-width:9;stroke-miterlimit:10;}
	.st7{fill:none;stroke:#968B83;stroke-width:6.364;stroke-miterlimit:10;}
	.st8{fill:none;stroke:#FFC82E;stroke-width:6.3102;stroke-miterlimit:10;}
	.st9{fill:none;stroke:#FFC82E;stroke-width:3.6422;stroke-miterlimit:10;}
	.st10{fill:none;stroke:#968B83;stroke-width:9.0531;stroke-miterlimit:10;}
	.st11{fill:none;stroke:#FFC82E;stroke-width:5.4724;stroke-miterlimit:10;}
	.st12{fill:none;stroke:#FFC82E;stroke-width:2.7362;stroke-miterlimit:10;}
	.st13{fill:#FFC82E;stroke:#FFC82E;stroke-width:5;stroke-miterlimit:10;}
	.st14{fill:none;stroke:#968B83;stroke-width:8.3796;stroke-miterlimit:10;}
	.st15{fill:none;stroke:#968B83;stroke-width:5.9252;stroke-miterlimit:10;}
	.st16{fill:#FFFFFF;}
	.st17{opacity:0.31;fill:#FFFFFF;}
	.st18{fill:#F5F5F5;}
	.st19{fill:none;}
	.st20{fill-rule:evenodd;clip-rule:evenodd;fill:#FFFFFF;}
	.st21{fill:#6ECAC9;}
</style>
<path class="st20" d="M68.4,13.1C52.1,14.6,47.1,27.8,49,47.7c-3.9,0.2-8.4-0.3-11.8,0.2c0,5.4,0,10.7,0,16.1
	c3.8,0.2,8.4-0.3,11.8,0.2c0.2,14.9-0.3,30.4,0.3,44.9c5.7,0,11.4,0,17.1,0c0-15.1,0-30.1,0-45.2c5.6,0,11.2,0,16.8,0
	c0.4-5.2,0.8-10.6,0.8-16.3c-5.9,0-11.7,0-17.6,0c0.3-6.4-1.1-13.5,1.5-17.1c2.7-3.8,11.1-1.7,15.9-2c-0.2-5.3,0.4-9.8,0.3-15.1
	C79,13.2,73.2,12.6,68.4,13.1z"/>
<path class="st16" d="M25.5,118.4h-21c-2.5,0-4.5-2-4.5-4.5V4.5C0,2,2,0,4.5,0h21C26.3,0,27,0.7,27,1.5S26.3,3,25.5,3h-21
	C3.7,3,3,3.7,3,4.5v109.4c0,0.8,0.7,1.5,1.5,1.5h21c0.8,0,1.5,0.7,1.5,1.5S26.3,118.4,25.5,118.4z"/>
<path class="st16" d="M120.4,118.4h-21c-0.8,0-1.5-0.7-1.5-1.5s0.7-1.5,1.5-1.5h21c0.8,0,1.5-0.7,1.5-1.5V4.5c0-0.8-0.7-1.5-1.5-1.5
	h-21c-0.8,0-1.5-0.7-1.5-1.5S98.6,0,99.4,0h21c2.5,0,4.5,2,4.5,4.5v109.4C124.9,116.3,122.9,118.4,120.4,118.4z"/>
</svg>
