<?xml version="1.0" encoding="utf-8"?>
<!-- Generator: Adobe Illustrator 19.1.0, SVG Export Plug-In . SVG Version: 6.00 Build 0)  -->
<svg version="1.1" id="Layer_1" xmlns="http://www.w3.org/2000/svg" xmlns:xlink="http://www.w3.org/1999/xlink" x="0px" y="0px"
	 viewBox="0 0 485 173.5" style="enable-background:new 0 0 485 173.5;" xml:space="preserve">
<style type="text/css">
	.st0{opacity:5.000000e-02;fill:#FFC82E;}
	.st1{fill:#968B83;}
	.st2{fill:#FFC82E;}
	.st3{fill:none;stroke:#FFC82E;stroke-width:5;stroke-miterlimit:10;}
	.st4{fill:none;stroke:#FFC82E;stroke-width:22.0845;stroke-miterlimit:10;}
	.st5{fill:none;stroke:#FFC82E;stroke-width:16;stroke-miterlimit:10;}
	.st6{fill:none;stroke:#968B83;stroke-width:9;stroke-miterlimit:10;}
	.st7{fill:none;stroke:#968B83;stroke-width:6.364;stroke-miterlimit:10;}
	.st8{fill:none;stroke:#FFC82E;stroke-width:6.3102;stroke-miterlimit:10;}
	.st9{fill:none;stroke:#FFC82E;stroke-width:3.6422;stroke-miterlimit:10;}
	.st10{fill:none;stroke:#968B83;stroke-width:9.0531;stroke-miterlimit:10;}
	.st11{fill:none;stroke:#FFC82E;stroke-width:5.4724;stroke-miterlimit:10;}
	.st12{fill:none;stroke:#FFC82E;stroke-width:2.7362;stroke-miterlimit:10;}
	.st13{fill:#FFC82E;stroke:#FFC82E;stroke-width:5;stroke-miterlimit:10;}
	.st14{fill:none;stroke:#968B83;stroke-width:8.3796;stroke-miterlimit:10;}
	.st15{fill:none;stroke:#968B83;stroke-width:5.9252;stroke-miterlimit:10;}
	.st16{fill:#FFFFFF;}
	.st17{opacity:0.31;fill:#FFFFFF;}
	.st18{fill:#F5F5F5;}
	.st19{fill:none;}
	.st20{fill-rule:evenodd;clip-rule:evenodd;fill:#FFFFFF;}
	.st21{fill:#6ECAC9;}
</style>
<polygon class="st16" points="100.5,77.4 103.2,72.6 106,67.8 100.5,67.8 94.9,67.8 97.7,72.6 "/>
<polygon class="st16" points="150.4,115.8 144.9,115.8 147.6,120.6 150.4,125.4 153.2,120.6 155.9,115.8 "/>
<polygon class="st16" points="144.9,135.1 147.6,139.9 150.4,144.7 153.2,139.9 156,135.1 150.4,135.1 "/>
<polygon class="st16" points="64.4,111 67.2,115.9 70,111 72.8,106.2 67.2,106.2 61.7,106.2 "/>
<polygon class="st16" points="83.8,125.5 78.3,125.5 72.7,125.5 75.5,130.3 78.3,135.1 81.1,130.3 "/>
<polygon class="st16" points="86.6,139.9 89.4,135.1 83.9,135.1 78.3,135.1 81.1,139.9 83.9,144.7 "/>
<path class="st16" d="M89.4,96.6l2.8-4.8l2.8-4.8h-5.5h-5.5l0,0l0,0h-5.5h-5.5l2.8,4.8l2.8,4.8l0,0h5.5L89.4,96.6L89.4,96.6z
	 M81.1,91.8l-1,1.7L81.1,91.8l2.6-4.5L81.1,91.8z"/>
<path class="st16" d="M67.2,77.4L67.2,77.4L67.2,77.4L67.2,77.4L67.2,77.4l2.8,4.8l2.8,4.8l2.8-4.8l2.8-4.8h0l0,0l2.8-4.8l2.8-4.8h0
	L81,63l-2.8-4.8h21.9h0.3L97.7,63l-2.8,4.8h5.5h5.5l-2.8-4.8l-2.8-4.8h0l2.8,4.8l2.8,4.8l2.8-4.8l0.1-0.2l-0.1,0.2l-2.8,4.8h5.5h5.5
	l-2.8-4.8l-2.8-4.8h11.1l-2.8,4.8l-2.8,4.8h0l0,0l-2.8,4.8l-2.8,4.8h0l0,0l0,0l0,0l0,0h0l0,0l0,0H106h-5.5l2.8,4.8l2.4,4.2l-2.4-4.2
	l-2.8-4.8l0,0l-2.8-4.8l-2.8-4.8l-2.8,4.8l-2.8,4.8h5.5h5.5l-2.8,4.8L94.9,87h5.5h5.5l0,0l0,0l0,0h5.5h5.5l0,0l2.8-4.8l2.8-4.8h0
	l0,0l0,0h0l0,0l2.8-4.8l2.8-4.8l2.8,4.8l2.8,4.8h-5.5h-5.5l2.8,4.8l2.8,4.8l0,0h5.5h5.5l-2.8-4.8l-2.8-4.8h5.5h5.5l-2.8-4.8
	l-2.8-4.8l-2.8,4.8l-2.8,4.8h0l2.8-4.8l2.8-4.8h-5.5h-5.5l0,0h5.5h5.5l-2.8-4.8l-2.8-4.8h0L117,29.1L100.2,0L83.4,29.1L66.6,58.2
	h11.7L75.5,63l-2.8,4.8h0l0,0l0,0h-5.5h-5.5l0,0l-2.8,4.8l-2.8,4.8h5.5H67.2z M111.6,77.4L111.6,77.4l0.5,0.9L111.6,77.4z
	 M119.9,72.6l-1.5-2.6L119.9,72.6l1.3,2.3L119.9,72.6z M77.6,51.8l11.3-19.5l11.3-19.5l11.3,19.5l11.3,19.5h-22.6H77.6z M69.9,72.6
	l2.8-4.8l0,0L69.9,72.6l-1,1.8L69.9,72.6z"/>
<polygon class="st16" points="89.4,77.4 86.6,72.6 83.8,67.8 81,72.6 78.3,77.4 83.8,77.4 "/>
<polygon class="st16" points="61.6,87 58.9,82.2 56.1,77.4 53.3,82.2 50.5,87 56.1,87 "/>
<polygon class="st16" points="72.7,87 78.3,87 83.8,87 81.1,82.2 78.3,77.4 75.5,82.2 "/>
<polygon class="st16" points="78.3,96.6 75.5,91.8 72.7,87 70,91.8 67.2,96.6 72.7,96.6 "/>
<polygon class="st16" points="117.1,87 114.4,91.8 111.6,96.6 111.6,96.6 114.4,101.4 117.1,106.2 119.9,101.4 122.7,96.6 
	122.7,96.6 119.9,91.8 "/>
<polygon class="st16" points="139.3,87 144.9,87 150.4,87 147.6,91.8 144.8,96.6 150.4,96.6 155.9,96.6 153.2,91.8 150.4,87 
	150.4,87 147.6,82.2 144.9,77.4 142.1,82.2 "/>
<polygon class="st16" points="155.9,115.8 156,115.8 153.2,120.6 150.4,125.4 156,125.4 161.5,125.4 161.5,125.4 164.3,120.6 
	167,115.8 161.5,115.8 156,115.8 156,115.8 161.5,115.8 167,115.8 164.3,111 161.5,106.2 158.7,111 "/>
<polygon class="st16" points="50.5,106.2 47.8,101.4 45,96.6 45,96.6 47.8,101.4 50.5,106.2 53.3,101.4 56.1,96.6 56.1,96.6 
	56.1,96.6 61.6,96.6 67.2,96.6 64.4,91.8 61.6,87 61.6,87 56.1,87 50.5,87 53.3,91.8 56.1,96.6 56.1,96.6 53.3,91.8 50.5,87 
	47.8,91.8 45,96.6 45,96.6 45,96.6 45,96.6 45,96.6 42.2,101.4 39.5,106.2 45,106.2 "/>
<polygon class="st16" points="83.8,106.2 81.1,101.4 78.3,96.6 75.5,101.4 72.7,106.2 72.8,106.2 70,111 67.2,115.8 72.8,115.8 
	78.3,115.8 75.5,111 72.8,106.2 78.3,106.2 "/>
<polygon class="st16" points="50.6,106.2 47.8,111 45,115.9 50.6,115.9 56.1,115.9 53.3,111 "/>
<polygon class="st16" points="97.1,111.5 94.3,116.5 100,116.5 105.7,116.5 102.9,111.5 100,106.6 "/>
<polygon class="st16" points="78.3,135.1 75.5,139.9 72.8,144.7 78.3,144.7 83.9,144.7 81.1,139.9 "/>
<polygon class="st16" points="61.7,125.5 64.4,120.7 65,119.6 64.4,120.7 61.7,125.5 67.2,125.5 72.8,125.5 70,120.7 67.2,115.9 
	67.2,115.9 67.2,115.9 67.2,115.9 67.2,115.9 61.7,115.9 56.1,115.9 58.9,120.7 "/>
<path class="st16" d="M61.6,154.3h5.5l0,0l-2.8,4.8l-2.8,4.8h5.5h5.5l-2.8-4.8l-2.8-4.8l2.8-4.8l2.8-4.8h-5.5h-5.5l0,0l-2.8,4.8
	l-2.8,4.8l-5.7-9.9l-5.4-9.3h5.5h5.5l0,0h0l2.8,4.8l2.8,4.8l2.8-4.8l0-0.1l-0.1,0.1l-2.8,4.8h5.5h5.5l-2.8-4.8l-2.8-4.8l0,0h0
	l-2.8-4.8l-2.8-4.8l0,0h0l-2.8-4.8l-2.8-4.8l-2.8,4.8l-2.8,4.8h0l0,0l-2.8,4.8l-2.8,4.8l-5.5-9.6H45h5.5l-2.8-4.8l-0.9-1.5l0.9,1.5
	l2.8,4.8l2.8-4.8l2.8-4.8l0,0h-5.5H45v0v0h0h0l-2.8,4.8l-2.8,4.8l-5.9-10.2l-16.8,29.1L0,173.5h33.6h33.6l-11.1-19.2H61.6z
	 M56.2,167.1H33.6H11l11.3-19.5L33.6,128l11.3,19.5L56.2,167.1z"/>
<polygon class="st16" points="94.9,163.9 97.7,159.1 100.5,154.3 100.5,154.3 97.7,149.5 95,144.7 92.2,149.5 89.4,154.3 
	89.4,154.3 86.6,149.5 83.9,144.7 81.1,149.5 78.3,154.3 78.3,154.3 78.3,154.3 81.1,159.1 83.8,163.8 81.1,159.1 78.3,154.3 
	75.5,159.1 72.8,163.9 72.8,163.9 72.8,163.9 72.8,163.9 67.2,163.9 61.7,163.9 64.4,168.7 67.2,173.5 67.2,173.5 72.8,173.5 
	78.3,173.5 78.3,173.5 81.1,168.7 83.9,163.9 83.9,163.9 83.9,163.9 86.6,159.1 89.4,154.3 92.2,159.1 94.9,163.9 92.2,168.7 
	89.4,173.5 94.9,173.5 100.5,173.5 97.7,168.7 "/>
<polygon class="st16" points="106,163.9 106,163.9 103.3,159.1 100.5,154.3 97.7,159.1 95,163.9 94.9,163.9 97.7,168.7 100.5,173.5 
	103.3,168.7 105.7,164.5 103.3,168.7 100.5,173.5 106,173.5 111.6,173.5 108.8,168.7 "/>
<path class="st16" d="M117.1,163.9h5.5h5.5l-2.8-4.8l-2.8-4.8l0,0l2.8,4.8l2.8,4.8l2.8-4.8l2.8-4.8h5.5h5.5l-2.8-4.8l-2.8-4.8l0,0
	h5.5h5.5l-2.8-4.8l-2.8-4.8l-2.8,4.8l-2.8,4.8l-2.8-4.8l-2.8-4.8l-2.8,4.8l-2.8,4.8l-2.8-4.8l-2.8-4.8h5.5h5.5l0,0h5.5h5.5l-1.7-3
	l1.7,3l2.8-4.8l2.8-4.8h0l-2.8-4.8l-2.8-4.8l-2.8,4.8l-2.8,4.8l-2.8-4.8l-2.8-4.8h0l0,0h5.5h5.5l0,0l2.8-4.8l2.8-4.8h0l2.8,4.8
	l2.8,4.8l2.8-4.8l2.8-4.8h-5.5h-5.5v0h0l0,0l2.8-4.8l2.8-4.8h-5.5h-5.5h0h-5.5h-5.5l2.8-4.8l2.8-4.8h-5.5h-5.5l0,0l-2.8,4.8
	l-2.8,4.8h0l2.8,4.8l2.8,4.8l2.8-4.8l2.8-4.8l2.8,4.8l2.8,4.8l2.8-4.8l2.8-4.8l0,0l-2.8,4.8l-2.8,4.8h0l0,0l-2.8,4.8l-2.8,4.8
	L131,111l-2.8-4.8l0,0l-2.8,4.8l-2.8,4.8h0l0,0l0,0h0l2.8,4.8l2.8,4.8l2.8-4.8l2.8-4.8h0l-2.8,4.8l-2.8,4.8h5.5h5.5l0,0h-5.5h-5.5
	l0,0h-5.5h-0.5l-22.1-38.3L78,125.5h5.9l-2.8,4.8l-2.8,4.8h5.5h5.5l0,0H95h5.5l0,0l-2.8,4.8l-2.8,4.8h5.5h5.5l2.8,4.8l2.8,4.8
	l2.8-4.8l2.8-4.8h0l0,0l0,0h0l-2.8-4.8l-2.8-4.8h0l-2.8-4.8l-2.8-4.8h11.1l2.8,4.8l2.8,4.8l2.8-4.8l2.8-4.8l0,0l-2.8,4.8l-2.8,4.8h0
	l-2.8,4.8l-2.8,4.8h5.5h5.5l0,0h0l2.8,4.8l2.8,4.8l0,0l-2.8-4.8l-2.8-4.8l-2.8,4.8l-2.8,4.8h-5.5h-5.5l2.8,4.8L117.1,163.9
	L117.1,163.9L117.1,163.9l-2.8-4.8l-2.8-4.8l-2.8,4.8l-2.8,4.8h5.5H117.1l-2.8,4.8l-2.8,4.8h5.5h5.5l-2.8-4.8L117.1,163.9z
	 M139.3,125.4l1.2,2.1L139.3,125.4L139.3,125.4z M131,91.8l-2.5-4.3L131,91.8l2.5,4.4L131,91.8z M108.8,139.9l0.8-1.4L108.8,139.9
	l-0.6,1.1L108.8,139.9z M92.2,130.3l-2.8,4.8l-2.8-4.8l-2.8-4.8H95L92.2,130.3z M103.3,130.3l-2.8,4.8h0l-2.8-4.8l-2.8-4.8h0
	l2.8,4.8l2.8,4.8L103.3,130.3l2.8-4.8h0L103.3,130.3z M89.4,118.9l10.7-18.5l10.7,18.5H89.4z M122.7,154.3h5.5h5.5l0,0h-5.5H122.7
	L122.7,154.3z"/>
<polygon class="st16" points="122.7,96.6 119.9,101.4 117.1,106.2 122.7,106.2 128.2,106.2 125.5,101.4 "/>
<polygon class="st16" points="109.9,44 105,35.6 100.2,27.2 95.3,35.6 90.5,44 100.2,44 "/>
<polygon class="st16" points="33.6,142.5 28.8,150.9 23.9,159.3 33.6,159.3 43.3,159.3 38.4,150.9 "/>
<path class="st16" d="M200.4,173.5l-16.6-28.8l-16.6-28.8l-16.6,28.8l-16.6,28.8l-2.8-4.8l-2.8-4.8l0,0h-5.5h-5.5l2.8,4.8l2.8,4.8
	l0,0h5.5h5.5l0,0h33.3H200.4z M155.9,147.8l11.2-19.4l11.2,19.4l11.2,19.4h-22.3h-22.3L155.9,147.8z"/>
<polygon class="st16" points="176.7,159.5 171.9,151.1 167.1,142.8 162.3,151.1 157.5,159.5 167.1,159.5 "/>
<polygon class="st16" points="339.6,141.3 343.8,157 348,172.6 332.3,168.5 316.7,164.3 328.1,152.8 "/>
<path class="st16" d="M336.5,153l1.5,5.6l1.5,5.6l-5.6-1.5l-5.6-1.5l4.1-4.1L336.5,153 M339.6,141.3l-11.5,11.5l-11.5,11.5l15.7,4.2
	l15.7,4.2l-4.2-15.7L339.6,141.3L339.6,141.3z"/>
<path class="st16" d="M264.8,23c35.3,0,64.1,28.7,64.1,64.1c0,35.3-28.7,64.1-64.1,64.1c-35.3,0-64.1-28.7-64.1-64.1
	C200.7,51.7,229.5,23,264.8,23 M264.8,2.8c-46.5,0-84.2,37.7-84.2,84.2c0,46.5,37.7,84.2,84.2,84.2c46.5,0,84.2-37.7,84.2-84.2
	C349,40.5,311.3,2.8,264.8,2.8L264.8,2.8z"/>
<path class="st16" d="M465.3,26.7v46h-76.9v-46H465.3 M485,7H368.7v85.4H485V7L485,7z"/>
<polygon class="st16" points="484.9,172.3 468.7,172.2 401.4,120.1 389,120.1 389,172.3 369.3,172.3 369.3,100.4 408.1,100.4 
	484.9,159.8 "/>
</svg>
