<?xml version="1.0" encoding="utf-8"?>
<!-- Generator: Adobe Illustrator 19.1.0, SVG Export Plug-In . SVG Version: 6.00 Build 0)  -->
<svg version="1.1" id="Layer_1" xmlns="http://www.w3.org/2000/svg" xmlns:xlink="http://www.w3.org/1999/xlink" x="0px" y="0px"
	 viewBox="0 0 124.9 118.4" style="enable-background:new 0 0 124.9 118.4;" xml:space="preserve">
<style type="text/css">
	.st0{opacity:5.000000e-02;fill:#FFC82E;}
	.st1{fill:#968B83;}
	.st2{fill:#FFC82E;}
	.st3{fill:none;stroke:#FFC82E;stroke-width:5;stroke-miterlimit:10;}
	.st4{fill:none;stroke:#FFC82E;stroke-width:22.0845;stroke-miterlimit:10;}
	.st5{fill:none;stroke:#FFC82E;stroke-width:16;stroke-miterlimit:10;}
	.st6{fill:none;stroke:#968B83;stroke-width:9;stroke-miterlimit:10;}
	.st7{fill:none;stroke:#968B83;stroke-width:6.364;stroke-miterlimit:10;}
	.st8{fill:none;stroke:#FFC82E;stroke-width:6.3102;stroke-miterlimit:10;}
	.st9{fill:none;stroke:#FFC82E;stroke-width:3.6422;stroke-miterlimit:10;}
	.st10{fill:none;stroke:#968B83;stroke-width:9.0531;stroke-miterlimit:10;}
	.st11{fill:none;stroke:#FFC82E;stroke-width:5.4724;stroke-miterlimit:10;}
	.st12{fill:none;stroke:#FFC82E;stroke-width:2.7362;stroke-miterlimit:10;}
	.st13{fill:#FFC82E;stroke:#FFC82E;stroke-width:5;stroke-miterlimit:10;}
	.st14{fill:none;stroke:#968B83;stroke-width:8.3796;stroke-miterlimit:10;}
	.st15{fill:none;stroke:#968B83;stroke-width:5.9252;stroke-miterlimit:10;}
	.st16{fill:#FFFFFF;}
	.st17{opacity:0.31;fill:#FFFFFF;}
	.st18{fill:#F5F5F5;}
	.st19{fill:none;}
	.st20{fill-rule:evenodd;clip-rule:evenodd;fill:#FFFFFF;}
	.st21{fill:#6ECAC9;}
</style>
<path class="st16" d="M25.5,118.4h-21c-2.5,0-4.5-2-4.5-4.5V4.5C0,2,2,0,4.5,0h21C26.3,0,27,0.7,27,1.5S26.3,3,25.5,3h-21
	C3.7,3,3,3.7,3,4.5v109.4c0,0.8,0.7,1.5,1.5,1.5h21c0.8,0,1.5,0.7,1.5,1.5S26.3,118.4,25.5,118.4z"/>
<path class="st16" d="M120.4,118.4h-21c-0.8,0-1.5-0.7-1.5-1.5s0.7-1.5,1.5-1.5h21c0.8,0,1.5-0.7,1.5-1.5V4.5c0-0.8-0.7-1.5-1.5-1.5
	h-21c-0.8,0-1.5-0.7-1.5-1.5S98.6,0,99.4,0h21c2.5,0,4.5,2,4.5,4.5v109.4C124.9,116.3,122.9,118.4,120.4,118.4z"/>
<path class="st20" d="M18.8,85.1c0-17.1,0-34.2,0-51.4c0.7-3.1,2.8-5.4,5.6-6c2.5-0.5,6-0.1,9.2-0.1c18.5,0,37.5,0,56.1,0
	c3,0,6.7-0.4,9.3,0.1c2.3,0.5,4.2,2.2,5,4.1c0.9,2,0.6,4.8,0.6,7.8c0,13.1,0,26.4,0,39.2c0,2.2,0.3,4.6,0,6.6
	c-0.4,2.8-2.7,5.2-5.3,5.8c-2.4,0.6-6,0.1-9.3,0.1c-19.1,0-37.6,0-56.3,0c-3.3,0-6.8,0.4-9.3-0.1C21.3,90.5,19.6,88.4,18.8,85.1z
	 M23.4,35.3c0.2,1.5,2.9,3,4.4,4.1C37.8,46.6,47.4,53.7,57,61c1.7,1.3,3.3,2.8,5.3,3.2c3.6,0.9,5.5-1.4,7.7-3.1
	c8.8-7.2,17.1-14.1,25.9-21.4c1.1-0.9,3.7-2.6,3.8-4.1c0.1-1.8-1.3-3.1-2.8-3.1c-1.4,0-3.2,1.9-4.3,2.8c-7,5.6-12.8,10.5-19.7,16
	c-2.3,1.8-5.6,5.2-9.2,5.2c-3.8,0-7.3-3.5-10.1-5.4C46,45.6,38.5,40.4,30.9,34.9c-1.4-1-3.7-3-5.1-2.9
	C24.2,32.2,23.2,33.5,23.4,35.3z M42.4,62.9c-5,5-8.8,9-13.8,14c-1.5,1.5-5,4.1-5,6.1c0,1.4,1.2,2.4,2.3,2.5c2.8,0.3,4.9-3.4,6.5-5
	c5.1-5.1,9.4-9.3,14.4-14.3c0.9-0.9,2.4-2.1,2.4-3.4c0-1.6-1.8-3.2-3.6-2.8C44.5,60.5,43.2,62.1,42.4,62.9z M77,63.6
	c0.1,1.3,1.3,2.4,2.1,3.2c5.1,5.6,10.2,11.5,15.2,16.9c0.8,0.9,1.9,2.3,3,2.4c1.9,0.2,3.2-1.1,3.2-2.6c0-1.3-1.2-2.2-2.1-3.2
	C93,74.3,88.3,69,83.1,63.1c-1-1.2-2.2-2.7-3.9-2.3C77.9,61,76.9,62,77,63.6z"/>
</svg>
