<?xml version="1.0" encoding="utf-8"?>
<!-- Generator: Adobe Illustrator 19.1.0, SVG Export Plug-In . SVG Version: 6.00 Build 0)  -->
<svg version="1.1" id="Layer_1" xmlns="http://www.w3.org/2000/svg" xmlns:xlink="http://www.w3.org/1999/xlink" x="0px" y="0px"
	 viewBox="0 0 172.9 163.7" style="enable-background:new 0 0 172.9 163.7;" xml:space="preserve">
<style type="text/css">
	.st0{opacity:5.000000e-02;fill:#FFC82E;}
	.st1{fill:#968B83;}
	.st2{fill:#FFC82E;}
	.st3{fill:none;stroke:#FFC82E;stroke-width:5;stroke-miterlimit:10;}
	.st4{fill:none;stroke:#FFC82E;stroke-width:22.0845;stroke-miterlimit:10;}
	.st5{fill:none;stroke:#FFC82E;stroke-width:16;stroke-miterlimit:10;}
	.st6{fill:none;stroke:#968B83;stroke-width:9;stroke-miterlimit:10;}
	.st7{fill:none;stroke:#968B83;stroke-width:6.364;stroke-miterlimit:10;}
	.st8{fill:none;stroke:#FFC82E;stroke-width:6.3102;stroke-miterlimit:10;}
	.st9{fill:none;stroke:#FFC82E;stroke-width:3.6422;stroke-miterlimit:10;}
	.st10{fill:none;stroke:#968B83;stroke-width:9.0531;stroke-miterlimit:10;}
	.st11{fill:none;stroke:#FFC82E;stroke-width:5.4724;stroke-miterlimit:10;}
	.st12{fill:none;stroke:#FFC82E;stroke-width:2.7362;stroke-miterlimit:10;}
	.st13{fill:#FFC82E;stroke:#FFC82E;stroke-width:5;stroke-miterlimit:10;}
	.st14{fill:none;stroke:#968B83;stroke-width:8.3796;stroke-miterlimit:10;}
	.st15{fill:none;stroke:#968B83;stroke-width:5.9252;stroke-miterlimit:10;}
	.st16{fill:#FFFFFF;}
	.st17{opacity:0.31;fill:#FFFFFF;}
	.st18{fill:#F5F5F5;}
	.st19{fill:none;}
	.st20{fill-rule:evenodd;clip-rule:evenodd;fill:#FFFFFF;}
	.st21{fill:#6ECAC9;}
</style>
<path class="st16" d="M34.9,163.7H5.7c-3.1,0-5.7-2.5-5.7-5.7V5.7C0,2.5,2.5,0,5.7,0h29.3c0.8,0,1.5,0.7,1.5,1.5S35.8,3,34.9,3H5.7
	C4.2,3,3,4.2,3,5.7v152.4c0,1.5,1.2,2.7,2.7,2.7h29.3c0.8,0,1.5,0.7,1.5,1.5S35.8,163.7,34.9,163.7z"/>
<path class="st16" d="M167.2,163.7h-29.3c-0.8,0-1.5-0.7-1.5-1.5s0.7-1.5,1.5-1.5h29.3c1.5,0,2.7-1.2,2.7-2.7V5.7
	c0-1.5-1.2-2.7-2.7-2.7h-29.3c-0.8,0-1.5-0.7-1.5-1.5s0.7-1.5,1.5-1.5h29.3c3.1,0,5.7,2.5,5.7,5.7v152.4
	C172.9,161.2,170.3,163.7,167.2,163.7z"/>
<path class="st16" d="M145.8,139.1H26c-2.8,0-5-2.2-5-5s2.2-5,5-5h119.8c2.8,0,5,2.2,5,5S148.5,139.1,145.8,139.1z"/>
<polygon class="st16" points="53.3,86.9 39.4,87 25.5,87 32.4,74.9 39.3,62.8 46.3,74.9 "/>
<path class="st16" d="M25.5,92c-1.8,0-3.4-0.9-4.3-2.5c-0.9-1.5-0.9-3.4,0-5l13.8-24.2c0.9-1.6,2.5-2.5,4.3-2.5
	c1.8-0.1,3.4,0.9,4.3,2.5l14,24c0.9,1.5,0.9,3.4,0,5s-2.5,2.5-4.3,2.5L25.5,92C25.5,92,25.5,92,25.5,92z M39.3,72.8L34.1,82
	l10.5-0.1L39.3,72.8z"/>
<polygon class="st16" points="100,86.9 86,87 72.1,87 79,74.9 85.9,62.8 92.9,74.9 "/>
<path class="st16" d="M72.1,92c-1.8,0-3.4-0.9-4.3-2.5c-0.9-1.5-0.9-3.4,0-5l13.8-24.2c0.9-1.6,2.5-2.5,4.3-2.5
	c1.8-0.1,3.4,0.9,4.3,2.5l14,24c0.9,1.5,0.9,3.4,0,5s-2.5,2.5-4.3,2.5L72.1,92C72.1,92,72.1,92,72.1,92z M86,72.8L80.7,82l10.5-0.1
	L86,72.8z"/>
<polygon class="st16" points="144.9,86.9 131,87 117.1,87 124,74.9 130.9,62.8 137.9,74.9 "/>
<path class="st16" d="M117.1,92c-1.8,0-3.4-0.9-4.3-2.5c-0.9-1.5-0.9-3.4,0-5l13.8-24.2c0.9-1.6,2.5-2.5,4.3-2.5
	c1.8-0.1,3.4,0.9,4.3,2.5l14,24c0.9,1.5,0.9,3.4,0,5s-2.5,2.5-4.3,2.5L117.1,92C117.1,92,117.1,92,117.1,92z M130.9,72.8l-5.2,9.1
	l10.5-0.1L130.9,72.8z"/>
</svg>
