<?xml version="1.0" encoding="utf-8"?>
<!-- Generator: Adobe Illustrator 19.1.0, SVG Export Plug-In . SVG Version: 6.00 Build 0)  -->
<svg version="1.1" id="Layer_1" xmlns="http://www.w3.org/2000/svg" xmlns:xlink="http://www.w3.org/1999/xlink" x="0px" y="0px"
	 viewBox="0 0 172.9 163.7" style="enable-background:new 0 0 172.9 163.7;" xml:space="preserve">
<style type="text/css">
	.st0{opacity:5.000000e-02;fill:#FFC82E;}
	.st1{fill:#968B83;}
	.st2{fill:#FFC82E;}
	.st3{fill:none;stroke:#FFC82E;stroke-width:5;stroke-miterlimit:10;}
	.st4{fill:none;stroke:#FFC82E;stroke-width:22.0845;stroke-miterlimit:10;}
	.st5{fill:none;stroke:#FFC82E;stroke-width:16;stroke-miterlimit:10;}
	.st6{fill:none;stroke:#968B83;stroke-width:9;stroke-miterlimit:10;}
	.st7{fill:none;stroke:#968B83;stroke-width:6.364;stroke-miterlimit:10;}
	.st8{fill:none;stroke:#FFC82E;stroke-width:6.3102;stroke-miterlimit:10;}
	.st9{fill:none;stroke:#FFC82E;stroke-width:3.6422;stroke-miterlimit:10;}
	.st10{fill:none;stroke:#968B83;stroke-width:9.0531;stroke-miterlimit:10;}
	.st11{fill:none;stroke:#FFC82E;stroke-width:5.4724;stroke-miterlimit:10;}
	.st12{fill:none;stroke:#FFC82E;stroke-width:2.7362;stroke-miterlimit:10;}
	.st13{fill:#FFC82E;stroke:#FFC82E;stroke-width:5;stroke-miterlimit:10;}
	.st14{fill:none;stroke:#968B83;stroke-width:8.3796;stroke-miterlimit:10;}
	.st15{fill:none;stroke:#968B83;stroke-width:5.9252;stroke-miterlimit:10;}
	.st16{fill:#FFFFFF;}
	.st17{opacity:0.31;fill:#FFFFFF;}
	.st18{fill:#F5F5F5;}
	.st19{fill:none;}
	.st20{fill-rule:evenodd;clip-rule:evenodd;fill:#FFFFFF;}
	.st21{fill:#6ECAC9;}
</style>
<path class="st16" d="M34.9,163.7H5.7c-3.1,0-5.7-2.5-5.7-5.7V5.7C0,2.5,2.5,0,5.7,0h29.3c0.8,0,1.5,0.7,1.5,1.5S35.8,3,34.9,3H5.7
	C4.2,3,3,4.2,3,5.7v152.4c0,1.5,1.2,2.7,2.7,2.7h29.3c0.8,0,1.5,0.7,1.5,1.5S35.8,163.7,34.9,163.7z"/>
<path class="st16" d="M167.2,163.7h-29.3c-0.8,0-1.5-0.7-1.5-1.5s0.7-1.5,1.5-1.5h29.3c1.5,0,2.7-1.2,2.7-2.7V5.7
	c0-1.5-1.2-2.7-2.7-2.7h-29.3c-0.8,0-1.5-0.7-1.5-1.5s0.7-1.5,1.5-1.5h29.3c3.1,0,5.7,2.5,5.7,5.7v152.4
	C172.9,161.2,170.3,163.7,167.2,163.7z"/>
<path class="st16" d="M27.1,97.4l3.2-41.2c1.8-0.3,3.9-0.5,6.3-0.5c2.4,0,4.5,0.2,6.4,0.5l3.6,14.8c1.4,6.7,2.2,10.4,2.2,11h0.4
	c0.2-1,0.9-4.7,2.2-11l3.6-14.8c1.8-0.3,3.9-0.5,6.3-0.5c2.4,0,4.5,0.2,6.4,0.5L71,97.4c-1.3,0.3-2.8,0.5-4.6,0.5
	c-1.8,0-3.3-0.1-4.5-0.3l-1-16.8c-0.3-6.7-0.4-11.4-0.5-14H60l-6,24.7c-1.5,0.2-3.1,0.4-5,0.4s-3.5-0.1-5-0.4l-5.9-24.7h-0.4
	c0,3.6-0.2,8.3-0.5,14l-0.9,16.8c-1.2,0.2-2.7,0.3-4.5,0.3C29.9,97.9,28.3,97.8,27.1,97.4z"/>
<path class="st16" d="M92.8,66.4l4.1-10.2c1-0.2,2.4-0.4,4-0.4c1.8,0,3.3,0.2,4.6,0.7l0.4,0.5L94.2,84.8v12.7
	c-1.2,0.2-2.9,0.4-4.8,0.4c-2,0-3.6-0.1-4.8-0.4v-13L72.8,57.3c1.8-1.1,3.6-1.6,5.3-1.6s2.9,0.3,3.6,0.9c0.7,0.6,1.4,1.6,2,3
	l2.9,7.2c1.1,2.6,2,5.5,2.7,8.7h0.4C90.4,72.9,91.4,69.9,92.8,66.4z"/>
<polygon class="st16" points="148,90.8 131.1,90.8 114.2,90.9 122.5,76.2 130.9,61.6 139.5,76.2 "/>
<path class="st16" d="M114.2,97c-2.2,0-4.2-1.1-5.2-3c-1.1-1.9-1.1-4.2,0-6.1l16.8-29.4c1.1-1.9,3.1-3.1,5.2-3.1c0,0,0,0,0,0
	c2.2,0,4.2,1.1,5.2,3l17.1,29.2c1.1,1.9,1.1,4.2,0,6.1c-1.1,1.9-3.1,3.1-5.2,3.1L114.2,97C114.2,97,114.2,97,114.2,97z M131,73.7
	l-6.3,11.1l12.8-0.1L131,73.7z"/>
<path class="st16" d="M145.8,139.1H26c-2.8,0-5-2.2-5-5s2.2-5,5-5h119.8c2.8,0,5,2.2,5,5S148.5,139.1,145.8,139.1z"/>
</svg>
