<?xml version="1.0" encoding="utf-8"?>
<!-- Generator: Adobe Illustrator 19.1.0, SVG Export Plug-In . SVG Version: 6.00 Build 0)  -->
<svg version="1.1" id="Layer_1" xmlns="http://www.w3.org/2000/svg" xmlns:xlink="http://www.w3.org/1999/xlink" x="0px" y="0px"
	 viewBox="0 0 78 74" style="enable-background:new 0 0 78 74;" xml:space="preserve">
<style type="text/css">
	.st0{opacity:5.000000e-02;fill:#FFC82E;}
	.st1{fill:#968B83;}
	.st2{fill:#FFC82E;}
	.st3{fill:none;stroke:#FFC82E;stroke-width:5;stroke-miterlimit:10;}
	.st4{fill:none;stroke:#FFC82E;stroke-width:22.0845;stroke-miterlimit:10;}
	.st5{fill:none;stroke:#FFC82E;stroke-width:16;stroke-miterlimit:10;}
	.st6{fill:none;stroke:#968B83;stroke-width:9;stroke-miterlimit:10;}
	.st7{fill:none;stroke:#968B83;stroke-width:6.364;stroke-miterlimit:10;}
	.st8{fill:none;stroke:#FFC82E;stroke-width:6.3102;stroke-miterlimit:10;}
	.st9{fill:none;stroke:#FFC82E;stroke-width:3.6422;stroke-miterlimit:10;}
	.st10{fill:none;stroke:#968B83;stroke-width:9.0531;stroke-miterlimit:10;}
	.st11{fill:none;stroke:#FFC82E;stroke-width:5.4724;stroke-miterlimit:10;}
	.st12{fill:none;stroke:#FFC82E;stroke-width:2.7362;stroke-miterlimit:10;}
	.st13{fill:#FFC82E;stroke:#FFC82E;stroke-width:5;stroke-miterlimit:10;}
	.st14{fill:none;stroke:#968B83;stroke-width:8.3796;stroke-miterlimit:10;}
	.st15{fill:none;stroke:#968B83;stroke-width:5.9252;stroke-miterlimit:10;}
	.st16{fill:#FFFFFF;}
	.st17{opacity:0.31;fill:#FFFFFF;}
	.st18{fill:#F5F5F5;}
	.st19{fill:none;}
	.st20{fill-rule:evenodd;clip-rule:evenodd;fill:#FFFFFF;}
	.st21{fill:#6ECAC9;}
</style>
<path class="st16" d="M11.3,44l1.4-17.7c0.8-0.1,1.7-0.2,2.7-0.2s2,0.1,2.7,0.2l1.5,6.4c0.6,2.9,0.9,4.4,1,4.7h0.2
	c0.1-0.4,0.4-2,1-4.7l1.6-6.4c0.8-0.1,1.7-0.2,2.7-0.2c1,0,2,0.1,2.7,0.2L30.1,44c-0.5,0.1-1.2,0.2-2,0.2s-1.4,0-1.9-0.1l-0.4-7.2
	c-0.1-2.9-0.2-4.9-0.2-6h-0.2l-2.6,10.6c-0.6,0.1-1.3,0.2-2.1,0.2s-1.5-0.1-2.1-0.2L16,30.8h-0.2c0,1.5-0.1,3.5-0.2,6l-0.4,7.2
	c-0.5,0.1-1.1,0.1-1.9,0.1S11.8,44.1,11.3,44z"/>
<path class="st16" d="M39.5,30.7l1.8-4.4c0.4-0.1,1-0.2,1.7-0.2c0.8,0,1.4,0.1,2,0.3l0.2,0.2l-5,11.9v5.5c-0.5,0.1-1.2,0.2-2.1,0.2
	c-0.8,0-1.5-0.1-2.1-0.2v-5.6l-5-11.7c0.8-0.5,1.6-0.7,2.3-0.7s1.2,0.1,1.6,0.4s0.6,0.7,0.8,1.3l1.3,3.1c0.5,1.1,0.8,2.4,1.2,3.7
	h0.2C38.5,33.5,38.9,32.2,39.5,30.7z"/>
<path class="st16" d="M16.3,74H3.3C1.5,74,0,72.5,0,70.6V3.3C0,1.5,1.5,0,3.3,0h12.9c0.8,0,1.5,0.7,1.5,1.5S17.1,3,16.3,3H3.3
	C3.2,3,3,3.2,3,3.3v67.3C3,70.8,3.2,71,3.3,71h12.9c0.8,0,1.5,0.7,1.5,1.5S17.1,74,16.3,74z"/>
<path class="st16" d="M74.7,74H61.7c-0.8,0-1.5-0.7-1.5-1.5s0.7-1.5,1.5-1.5h12.9c0.2,0,0.3-0.2,0.3-0.3V3.3C75,3.2,74.8,3,74.7,3
	H61.7c-0.8,0-1.5-0.7-1.5-1.5S60.9,0,61.7,0h12.9C76.5,0,78,1.5,78,3.3v67.3C78,72.5,76.5,74,74.7,74z"/>
<polygon class="st16" points="63.2,41.1 56,41.2 48.7,41.2 52.3,34.9 55.9,28.6 59.6,34.9 "/>
<path class="st16" d="M48.7,43.8c-0.9,0-1.8-0.5-2.3-1.3c-0.5-0.8-0.5-1.8,0-2.6l7.2-12.6c0.5-0.8,1.3-1.3,2.3-1.3
	c0.9,0,1.8,0.5,2.3,1.3l7.3,12.5c0.5,0.8,0.5,1.8,0,2.6c-0.5,0.8-1.3,1.3-2.3,1.3L48.7,43.8C48.7,43.8,48.7,43.8,48.7,43.8z
	 M55.9,33.8l-2.7,4.8l5.5,0L55.9,33.8z"/>
</svg>
