<?xml version="1.0" encoding="utf-8"?>
<!-- Generator: Adobe Illustrator 19.1.0, SVG Export Plug-In . SVG Version: 6.00 Build 0)  -->
<svg version="1.1" id="Layer_1" xmlns="http://www.w3.org/2000/svg" xmlns:xlink="http://www.w3.org/1999/xlink" x="0px" y="0px"
	 viewBox="0 0 124.9 118.4" style="enable-background:new 0 0 124.9 118.4;" xml:space="preserve">
<style type="text/css">
	.st0{opacity:5.000000e-02;fill:#FFC82E;}
	.st1{fill:#968B83;}
	.st2{fill:#FFC82E;}
	.st3{fill:none;stroke:#FFC82E;stroke-width:5;stroke-miterlimit:10;}
	.st4{fill:none;stroke:#FFC82E;stroke-width:22.0845;stroke-miterlimit:10;}
	.st5{fill:none;stroke:#FFC82E;stroke-width:16;stroke-miterlimit:10;}
	.st6{fill:none;stroke:#968B83;stroke-width:9;stroke-miterlimit:10;}
	.st7{fill:none;stroke:#968B83;stroke-width:6.364;stroke-miterlimit:10;}
	.st8{fill:none;stroke:#FFC82E;stroke-width:6.3102;stroke-miterlimit:10;}
	.st9{fill:none;stroke:#FFC82E;stroke-width:3.6422;stroke-miterlimit:10;}
	.st10{fill:none;stroke:#968B83;stroke-width:9.0531;stroke-miterlimit:10;}
	.st11{fill:none;stroke:#FFC82E;stroke-width:5.4724;stroke-miterlimit:10;}
	.st12{fill:none;stroke:#FFC82E;stroke-width:2.7362;stroke-miterlimit:10;}
	.st13{fill:#FFC82E;stroke:#FFC82E;stroke-width:5;stroke-miterlimit:10;}
	.st14{fill:none;stroke:#968B83;stroke-width:8.3796;stroke-miterlimit:10;}
	.st15{fill:none;stroke:#968B83;stroke-width:5.9252;stroke-miterlimit:10;}
	.st16{fill:#FFFFFF;}
	.st17{opacity:0.31;fill:#FFFFFF;}
	.st18{fill:#F5F5F5;}
	.st19{fill:none;}
	.st20{fill-rule:evenodd;clip-rule:evenodd;fill:#FFFFFF;}
	.st21{fill:#6ECAC9;}
</style>
<path class="st16" d="M25.5,118.4h-21c-2.5,0-4.5-2-4.5-4.5V4.5C0,2,2,0,4.5,0h21C26.3,0,27,0.7,27,1.5S26.3,3,25.5,3h-21
	C3.7,3,3,3.7,3,4.5v109.4c0,0.8,0.7,1.5,1.5,1.5h21c0.8,0,1.5,0.7,1.5,1.5S26.3,118.4,25.5,118.4z"/>
<path class="st16" d="M120.4,118.4h-21c-0.8,0-1.5-0.7-1.5-1.5s0.7-1.5,1.5-1.5h21c0.8,0,1.5-0.7,1.5-1.5V4.5c0-0.8-0.7-1.5-1.5-1.5
	h-21c-0.8,0-1.5-0.7-1.5-1.5S98.6,0,99.4,0h21c2.5,0,4.5,2,4.5,4.5v109.4C124.9,116.3,122.9,118.4,120.4,118.4z"/>
<path class="st20" d="M66.9,105.2c11.8-0.7,21-6.4,27.5-12.9c6.5-6.5,12.2-15.9,12.9-27.5c0.9-14.2-3.9-25.3-10.9-33.4
	C89.9,24,79.5,17.2,66.9,16.4c-17.8-1.1-29.5,6-37.4,15.1c-7,8-11.9,18.5-10.9,33.3c0.6,9.2,4.4,17,8.9,22.9
	c3.9,5.3,9.4,9.7,15.2,12.7c0.7,0.4,1.6,1,2.5,0.9c-0.2-7.8,1.4-13.1,3-19.7c0.8-3.3,1.9-7.3,2.7-10.7c0.3-1.2,0.9-2.8,0.9-3.7
	c0-1.3-1-2.7-1.2-4c-0.6-3.8-0.2-7.7,1.5-10.5c1.5-2.5,5.5-5.5,9.5-3.7c5.3,2.4,2.6,10.6,1,15.7c-1,3.1-2.6,6.9-1.8,9.9
	c1.1,4.2,7.3,6.1,11.7,3.8c4-2.1,6.3-6.4,7.8-11.1c3.2-9.8,2.2-20.8-5.2-25.6c-7.1-4.6-16.7-3.6-22.5-0.6
	c-5.9,3.1-10.6,9.6-11.1,17.2c-0.2,3.2-0.1,4.9,0.9,7.2c0.6,1.6,2.7,3.1,2.8,4.7c0.1,1.2-0.8,5.5-2.2,5.8c-1.5,0.3-3.6-1.7-4.4-2.4
	c-1.4-1.2-2.4-2.5-3.1-3.7C29.4,59.5,34.9,46,41.4,40c5.1-4.7,11.2-7.7,19.4-8.4c8.9-0.8,16.4,1.4,21.9,5.6c5.2,3.9,9.4,10,9.9,17.9
	c0.7,9.9-2.1,17.1-5.9,22.6c-3.6,5.2-10,10.3-19.2,9.5c-3.4-0.3-6.4-1.9-8.1-3.7c-0.6-0.6-1.1-1.7-1.6-1.5
	c-1.6,6.8-3.3,14.2-6.2,19.5c-0.4,0.7-1.3,1.2-1,2.1C55.6,105.1,60.6,105.6,66.9,105.2z"/>
<path class="st20" d="M50.5,103.6c-0.2-0.8,0.7-1.4,1-2.1c2.9-5.3,4.6-12.7,6.2-19.5c0.6-0.2,1,0.9,1.6,1.5c1.7,1.8,4.7,3.4,8.1,3.7
	c9.3,0.8,15.6-4.3,19.2-9.5c3.8-5.5,6.6-12.7,5.9-22.6c-0.5-7.9-4.8-14-9.9-17.9c-5.5-4.2-13-6.4-21.9-5.6
	c-8.2,0.7-14.3,3.8-19.4,8.4c-6.5,6-12,19.5-6.1,30.2c0.7,1.2,1.8,2.5,3.1,3.7c0.8,0.7,2.9,2.6,4.4,2.4c1.4-0.2,2.3-4.5,2.2-5.8
	c-0.2-1.6-2.2-3.1-2.8-4.7c-0.9-2.4-1.1-4.1-0.9-7.2c0.5-7.5,5.2-14.1,11.1-17.2c5.8-3.1,15.4-4,22.5,0.6c7.4,4.8,8.4,15.8,5.2,25.6
	c-1.5,4.7-3.8,9-7.8,11.1c-4.4,2.3-10.6,0.3-11.7-3.8c-0.8-3,0.8-6.8,1.8-9.9c1.6-5,4.3-13.3-1-15.7c-4-1.8-8,1.2-9.5,3.7
	c-1.6,2.8-2.1,6.7-1.5,10.5c0.2,1.3,1.2,2.7,1.2,4c0,0.9-0.6,2.5-0.9,3.7c-0.8,3.4-1.9,7.4-2.7,10.7c-1.5,6.5-3.2,11.9-3,19.7
	c-0.9,0.2-1.8-0.5-2.5-0.9c-5.9-3-11.3-7.5-15.2-12.7c-4.5-6-8.3-13.7-8.9-22.9C17.6,50,22.4,39.5,29.4,31.5
	c7.9-9,19.6-16.2,37.4-15.1c12.6,0.8,23,7.5,29.4,14.9c7.1,8.2,11.8,19.2,10.9,33.4c-0.7,11.6-6.3,21-12.9,27.5
	c-6.5,6.5-15.7,12.1-27.5,12.9C60.6,105.6,55.6,105.1,50.5,103.6z"/>
</svg>
