<?xml version="1.0" encoding="utf-8"?>
<!-- Generator: Adobe Illustrator 19.1.0, SVG Export Plug-In . SVG Version: 6.00 Build 0)  -->
<svg version="1.1" id="Layer_1" xmlns="http://www.w3.org/2000/svg" xmlns:xlink="http://www.w3.org/1999/xlink" x="0px" y="0px"
	 viewBox="0 0 172.9 163.7" style="enable-background:new 0 0 172.9 163.7;" xml:space="preserve">
<style type="text/css">
	.st0{opacity:5.000000e-02;fill:#FFC82E;}
	.st1{fill:#968B83;}
	.st2{fill:#FFC82E;}
	.st3{fill:none;stroke:#FFC82E;stroke-width:5;stroke-miterlimit:10;}
	.st4{fill:none;stroke:#FFC82E;stroke-width:22.0845;stroke-miterlimit:10;}
	.st5{fill:none;stroke:#FFC82E;stroke-width:16;stroke-miterlimit:10;}
	.st6{fill:none;stroke:#968B83;stroke-width:9;stroke-miterlimit:10;}
	.st7{fill:none;stroke:#968B83;stroke-width:6.364;stroke-miterlimit:10;}
	.st8{fill:none;stroke:#FFC82E;stroke-width:6.3102;stroke-miterlimit:10;}
	.st9{fill:none;stroke:#FFC82E;stroke-width:3.6422;stroke-miterlimit:10;}
	.st10{fill:none;stroke:#968B83;stroke-width:9.0531;stroke-miterlimit:10;}
	.st11{fill:none;stroke:#FFC82E;stroke-width:5.4724;stroke-miterlimit:10;}
	.st12{fill:none;stroke:#FFC82E;stroke-width:2.7362;stroke-miterlimit:10;}
	.st13{fill:#FFC82E;stroke:#FFC82E;stroke-width:5;stroke-miterlimit:10;}
	.st14{fill:none;stroke:#968B83;stroke-width:8.3796;stroke-miterlimit:10;}
	.st15{fill:none;stroke:#968B83;stroke-width:5.9252;stroke-miterlimit:10;}
	.st16{fill:#FFFFFF;}
	.st17{opacity:0.31;fill:#FFFFFF;}
	.st18{fill:#F5F5F5;}
	.st19{fill:none;}
	.st20{fill-rule:evenodd;clip-rule:evenodd;fill:#FFFFFF;}
	.st21{fill:#6ECAC9;}
</style>
<path class="st16" d="M34.9,163.7H5.7c-3.1,0-5.7-2.5-5.7-5.7V5.7C0,2.5,2.5,0,5.7,0h29.3c0.8,0,1.5,0.7,1.5,1.5S35.8,3,34.9,3H5.7
	C4.2,3,3,4.2,3,5.7v152.4c0,1.5,1.2,2.7,2.7,2.7h29.3c0.8,0,1.5,0.7,1.5,1.5S35.8,163.7,34.9,163.7z"/>
<path class="st16" d="M167.2,163.7h-29.3c-0.8,0-1.5-0.7-1.5-1.5s0.7-1.5,1.5-1.5h29.3c1.5,0,2.7-1.2,2.7-2.7V5.7
	c0-1.5-1.2-2.7-2.7-2.7h-29.3c-0.8,0-1.5-0.7-1.5-1.5s0.7-1.5,1.5-1.5h29.3c3.1,0,5.7,2.5,5.7,5.7v152.4
	C172.9,161.2,170.3,163.7,167.2,163.7z"/>
<path class="st16" d="M145.8,139.1H26c-2.8,0-5-2.2-5-5s2.2-5,5-5h119.8c2.8,0,5,2.2,5,5S148.5,139.1,145.8,139.1z"/>
<path class="st16" d="M37.2,59.1H33v11.4c-1.1,0.2-2.5,0.3-4.2,0.3c-1.7,0-3.1-0.1-4.2-0.3V34.4l0.4-0.4c3.1-0.1,5.7-0.1,7.7-0.2
	c2,0,3.6-0.1,4.7-0.1c2,0,3.7,0.3,5.4,0.8c1.6,0.5,3,1.3,4.1,2.4s2,2.4,2.6,4c0.6,1.6,0.9,3.4,0.9,5.5s-0.3,3.9-1,5.5
	c-0.6,1.6-1.5,2.9-2.7,4c-1.1,1.1-2.5,1.9-4.1,2.4C40.9,58.9,39.1,59.1,37.2,59.1z M33,40.3v12.4c1,0,1.8-0.1,2.4-0.1s1,0,1.2,0
	c1,0,1.8-0.2,2.4-0.5c0.6-0.3,1.2-0.8,1.6-1.3c0.4-0.6,0.7-1.2,0.9-1.9s0.3-1.5,0.3-2.3c0-0.8-0.1-1.5-0.3-2.3s-0.5-1.4-0.8-2
	c-0.4-0.6-0.9-1-1.5-1.4c-0.6-0.3-1.3-0.5-2.1-0.5s-1.6,0-2.2,0C34,40.4,33.5,40.3,33,40.3z"/>
<path class="st16" d="M82,45.4c0,1.2-0.2,2.3-0.5,3.3c-0.4,1-0.8,2-1.4,2.8c-0.6,0.8-1.3,1.6-2.1,2.2s-1.6,1.1-2.5,1.4
	c1.8,0.7,3.2,2.3,4.1,4.9l1.6,4.5c0.6,1.8,1.5,3.1,2.7,3.9c-0.5,0.7-1.3,1.3-2.4,1.8C80.4,70.8,79.3,71,78,71c-1.3,0-2.3-0.4-3-1.1
	s-1.4-2-2-3.8l-1.9-5.6c-0.4-1.1-0.9-1.9-1.6-2.5c-0.7-0.6-1.6-0.9-3-0.9h-2.2v13.3c-1.1,0.2-2.6,0.3-4.3,0.3
	c-1.7,0-3.1-0.1-4.2-0.3V34.4l0.4-0.4c3.1-0.1,5.7-0.1,7.8-0.2c2.1,0,3.8-0.1,5-0.1c2,0,3.7,0.2,5.3,0.7c1.6,0.5,3,1.2,4.1,2.2
	c1.1,1,2,2.2,2.6,3.6S82,43.5,82,45.4z M64.4,40.2v10.5c1.6,0,3,0,4.1-0.1c1.1-0.1,2.1-0.3,2.7-0.6c0.7-0.4,1.2-0.9,1.6-1.6
	s0.5-1.7,0.5-2.9c0-3.5-1.7-5.2-5-5.2c-0.8,0-1.6,0-2.2,0C65.5,40.2,64.9,40.2,64.4,40.2z"/>
<path class="st16" d="M91.6,68c-3.8-3.2-5.7-8.4-5.7-15.6c0-3.1,0.4-5.9,1.1-8.2c0.7-2.4,1.8-4.3,3.1-5.9c1.4-1.6,3-2.8,5-3.6
	c2-0.8,4.2-1.2,6.6-1.2s4.7,0.4,6.6,1.2c2,0.8,3.6,2,5,3.7c1.4,1.6,2.4,3.6,3.1,6c0.7,2.4,1.1,5.1,1.1,8.2c0,3.1-0.4,5.8-1.1,8.2
	c-0.7,2.4-1.8,4.3-3.1,5.9c-1.4,1.6-3,2.8-5,3.6c-2,0.8-4.2,1.2-6.6,1.2C97.7,71.4,94.3,70.2,91.6,68z M95.9,60.6
	c1,2.8,2.9,4.2,5.8,4.2c1.5,0,2.6-0.4,3.5-1.1c0.9-0.7,1.6-1.7,2.1-2.8c0.5-1.1,0.9-2.4,1-3.8c0.2-1.4,0.3-2.8,0.3-4.1
	c0-1.2,0-2.6-0.1-4.2s-0.3-3-0.8-4.3c-0.4-1.3-1.1-2.5-2-3.4c-0.9-0.9-2.3-1.4-4.1-1.4c-1.7,0-3,0.4-3.9,1.3s-1.6,1.9-2,3.2
	c-0.4,1.3-0.7,2.6-0.8,4.1c-0.1,1.4-0.2,2.7-0.2,3.8c0,1.6,0.1,3.1,0.2,4.4C95.2,58,95.5,59.3,95.9,60.6z"/>
<path class="st16" d="M32.9,88.1l0.1,4.2v3.4h11.5c0.3,1.1,0.4,2.2,0.4,3.5s-0.1,2.4-0.4,3.5H33v14.7c-1.1,0.2-2.5,0.3-4.2,0.3
	c-1.7,0-3.1-0.1-4.2-0.3V81.2l0.4-0.3h22.8c0.2,0.9,0.3,2,0.3,3.3s-0.4,2.3-1.1,3c-0.7,0.6-1.9,1-3.5,1H32.9z"/>
<path class="st16" d="M53.1,117.3V80.8c1.1-0.2,2.5-0.3,4.3-0.3s3.2,0.1,4.3,0.3v36.4c-1.1,0.2-2.6,0.3-4.3,0.3
	S54.2,117.5,53.1,117.3z"/>
<path class="st16" d="M83.4,110.1h9.3c0,1.4-0.1,2.6-0.3,3.7c-0.2,1-0.7,1.9-1.7,2.6c-1,0.7-2.2,1.1-3.8,1.1H74.8
	c-1.5,0-2.7-0.4-3.6-1.3c-0.9-0.9-1.3-2.1-1.3-3.6V80.8l0.4-0.4h3.1c3.3,0,5,1.8,5,5.4v24.4C79.9,110.1,81.6,110.1,83.4,110.1z"/>
<path class="st16" d="M106.2,106.5l-0.1,3.8v0.1c1.6-0.1,2.9-0.1,3.9-0.1h12.3c0,1.3-0.1,2.3-0.2,3c-0.4,2.7-2.2,4.1-5.4,4.1h-14.2
	c-1.5,0-2.7-0.4-3.6-1.3c-0.9-0.9-1.3-2.1-1.3-3.6V81.2l0.4-0.4h23c0.2,1,0.3,2.2,0.3,3.4c0,1.2-0.2,2.5-0.7,3.8h-14.5l0.1,3.8v3.7
	c0.9,0,2.1-0.1,3.6-0.1h8.1c0.3,1,0.5,2.1,0.5,3.4c0,1.3-0.2,2.5-0.5,3.5h-11.7V106.5z"/>
<path class="st16" d="M125.1,114.1c0.1-1.2,0.5-2.3,1.1-3.5c0.6-1.2,1.4-2.1,2.2-2.9c3.8,2.3,7.4,3.5,10.8,3.5c1.5,0,2.6-0.3,3.3-1
	c0.7-0.7,1-1.5,1-2.5c0-1.7-1.1-3-3.4-3.9l-6.3-2.7c-2.5-1.1-4.3-2.4-5.7-4c-1.3-1.5-2-3.5-2-5.9c0-1.6,0.3-3.1,1-4.5
	c0.7-1.4,1.6-2.5,2.8-3.5s2.6-1.8,4.2-2.3c1.6-0.6,3.4-0.8,5.4-0.8c4,0,8,1,12.1,3c-0.2,2.7-1.1,4.9-2.9,6.4
	c-3.6-1.7-6.8-2.6-9.6-2.6c-1.4,0-2.5,0.3-3.2,1c-0.7,0.6-1.1,1.4-1.1,2.2c0,1.4,1,2.5,3.1,3.4l6.4,2.7c2.7,1.1,4.7,2.6,6.1,4.4
	c1.3,1.8,2,3.8,2,6.2c0,1.7-0.3,3.2-0.9,4.6s-1.5,2.6-2.7,3.6c-1.2,1-2.7,1.8-4.5,2.4c-1.8,0.6-3.9,0.9-6.2,0.9
	C133.7,118.1,129.3,116.8,125.1,114.1z"/>
</svg>
