<?xml version="1.0" encoding="utf-8"?>
<!-- Generator: Adobe Illustrator 19.1.0, SVG Export Plug-In . SVG Version: 6.00 Build 0)  -->
<svg version="1.1" id="Layer_1" xmlns="http://www.w3.org/2000/svg" xmlns:xlink="http://www.w3.org/1999/xlink" x="0px" y="0px"
	 viewBox="0 0 77.2 73.2" style="enable-background:new 0 0 77.2 73.2;" xml:space="preserve">
<style type="text/css">
	.st0{opacity:5.000000e-02;fill:#FFC82E;}
	.st1{fill:#968B83;}
	.st2{fill:#FFC82E;}
	.st3{fill:none;stroke:#FFC82E;stroke-width:5;stroke-miterlimit:10;}
	.st4{fill:none;stroke:#FFC82E;stroke-width:22.0845;stroke-miterlimit:10;}
	.st5{fill:none;stroke:#FFC82E;stroke-width:16;stroke-miterlimit:10;}
	.st6{fill:none;stroke:#968B83;stroke-width:9;stroke-miterlimit:10;}
	.st7{fill:none;stroke:#968B83;stroke-width:6.364;stroke-miterlimit:10;}
	.st8{fill:none;stroke:#FFC82E;stroke-width:6.3102;stroke-miterlimit:10;}
	.st9{fill:none;stroke:#FFC82E;stroke-width:3.6422;stroke-miterlimit:10;}
	.st10{fill:none;stroke:#968B83;stroke-width:9.0531;stroke-miterlimit:10;}
	.st11{fill:none;stroke:#FFC82E;stroke-width:5.4724;stroke-miterlimit:10;}
	.st12{fill:none;stroke:#FFC82E;stroke-width:2.7362;stroke-miterlimit:10;}
	.st13{fill:#FFC82E;stroke:#FFC82E;stroke-width:5;stroke-miterlimit:10;}
	.st14{fill:none;stroke:#968B83;stroke-width:8.3796;stroke-miterlimit:10;}
	.st15{fill:none;stroke:#968B83;stroke-width:5.9252;stroke-miterlimit:10;}
	.st16{fill:#FFFFFF;}
	.st17{opacity:0.31;fill:#FFFFFF;}
	.st18{fill:#F5F5F5;}
	.st19{fill:none;}
	.st20{fill-rule:evenodd;clip-rule:evenodd;fill:#FFFFFF;}
	.st21{fill:#6ECAC9;}
</style>
<path class="st16" d="M16.1,73.2H3.3c-1.8,0-3.3-1.5-3.3-3.3V3.3C0,1.5,1.5,0,3.3,0h12.8c0.8,0,1.5,0.7,1.5,1.5S16.9,3,16.1,3H3.3
	C3.1,3,3,3.1,3,3.3v66.6c0,0.2,0.1,0.3,0.3,0.3h12.8c0.8,0,1.5,0.7,1.5,1.5S16.9,73.2,16.1,73.2z"/>
<path class="st16" d="M73.9,73.2H61.1c-0.8,0-1.5-0.7-1.5-1.5s0.7-1.5,1.5-1.5h12.8c0.2,0,0.3-0.1,0.3-0.3V3.3
	c0-0.2-0.1-0.3-0.3-0.3H61.1c-0.8,0-1.5-0.7-1.5-1.5S60.3,0,61.1,0h12.8c1.8,0,3.3,1.5,3.3,3.3v66.6C77.2,71.7,75.7,73.2,73.9,73.2z
	"/>
<path class="st16" d="M64.5,61.6H12.2c-1.2,0-2.2-1-2.2-2.2s1-2.2,2.2-2.2h52.3c1.2,0,2.2,1,2.2,2.2S65.7,61.6,64.5,61.6z"/>
<path class="st16" d="M17.1,26.7h-1.8v5c-0.5,0.1-1.1,0.1-1.9,0.1c-0.8,0-1.4,0-1.9-0.1V15.9l0.2-0.2c1.4,0,2.5-0.1,3.4-0.1
	c0.9,0,1.6,0,2,0c0.9,0,1.6,0.1,2.3,0.3c0.7,0.2,1.3,0.6,1.8,1s0.9,1,1.2,1.7c0.3,0.7,0.4,1.5,0.4,2.4c0,0.9-0.1,1.7-0.4,2.4
	c-0.3,0.7-0.7,1.3-1.2,1.7c-0.5,0.5-1.1,0.8-1.8,1.1C18.7,26.6,17.9,26.7,17.1,26.7z M15.2,18.5v5.4c0.4,0,0.8,0,1,0s0.4,0,0.5,0
	c0.4,0,0.8-0.1,1.1-0.2c0.3-0.1,0.5-0.3,0.7-0.6c0.2-0.2,0.3-0.5,0.4-0.9s0.1-0.7,0.1-1c0-0.3,0-0.7-0.1-1s-0.2-0.6-0.4-0.9
	c-0.2-0.2-0.4-0.4-0.6-0.6s-0.6-0.2-0.9-0.2c-0.4,0-0.7,0-1,0S15.5,18.5,15.2,18.5z"/>
<path class="st16" d="M36.7,20.7c0,0.5-0.1,1-0.2,1.5c-0.2,0.5-0.4,0.9-0.6,1.2c-0.3,0.4-0.6,0.7-0.9,1c-0.3,0.3-0.7,0.5-1.1,0.6
	c0.8,0.3,1.4,1,1.8,2.1l0.7,2c0.3,0.8,0.7,1.4,1.2,1.7c-0.2,0.3-0.6,0.6-1,0.8c-0.5,0.2-1,0.3-1.5,0.3c-0.6,0-1-0.2-1.3-0.5
	c-0.3-0.3-0.6-0.9-0.9-1.7l-0.8-2.4c-0.2-0.5-0.4-0.8-0.7-1.1c-0.3-0.2-0.7-0.4-1.3-0.4h-1v5.8c-0.5,0.1-1.1,0.1-1.9,0.1
	c-0.7,0-1.4,0-1.8-0.1V15.9l0.2-0.2c1.4,0,2.5-0.1,3.4-0.1c0.9,0,1.7,0,2.2,0c0.9,0,1.6,0.1,2.3,0.3c0.7,0.2,1.3,0.5,1.8,0.9
	s0.9,0.9,1.1,1.6C36.5,19.1,36.7,19.8,36.7,20.7z M29,18.4V23c0.7,0,1.3,0,1.8,0c0.5,0,0.9-0.1,1.2-0.3c0.3-0.2,0.5-0.4,0.7-0.7
	c0.2-0.3,0.2-0.7,0.2-1.3c0-1.5-0.7-2.3-2.2-2.3c-0.4,0-0.7,0-1,0C29.4,18.4,29.2,18.4,29,18.4z"/>
<path class="st16" d="M40.9,30.6c-1.7-1.4-2.5-3.7-2.5-6.8c0-1.4,0.2-2.6,0.5-3.6c0.3-1,0.8-1.9,1.4-2.6c0.6-0.7,1.3-1.2,2.2-1.6
	c0.9-0.4,1.8-0.5,2.9-0.5c1.1,0,2,0.2,2.9,0.5s1.6,0.9,2.2,1.6c0.6,0.7,1.1,1.6,1.4,2.6c0.3,1,0.5,2.2,0.5,3.6s-0.2,2.5-0.5,3.6
	c-0.3,1-0.8,1.9-1.4,2.6c-0.6,0.7-1.3,1.2-2.2,1.6S46.4,32,45.3,32C43.5,32,42,31.5,40.9,30.6z M42.7,27.3c0.4,1.2,1.3,1.8,2.5,1.8
	c0.6,0,1.2-0.2,1.5-0.5s0.7-0.7,0.9-1.2c0.2-0.5,0.4-1,0.5-1.6c0.1-0.6,0.1-1.2,0.1-1.8c0-0.5,0-1.1-0.1-1.8s-0.2-1.3-0.3-1.9
	c-0.2-0.6-0.5-1.1-0.9-1.5c-0.4-0.4-1-0.6-1.8-0.6c-0.7,0-1.3,0.2-1.7,0.6c-0.4,0.4-0.7,0.9-0.9,1.4c-0.2,0.6-0.3,1.2-0.4,1.8
	s-0.1,1.2-0.1,1.7c0,0.7,0,1.4,0.1,1.9C42.4,26.2,42.6,26.7,42.7,27.3z"/>
<path class="st16" d="M15.2,39.3l0,1.8v1.5h5c0.1,0.5,0.2,1,0.2,1.5s-0.1,1.1-0.2,1.5h-5v6.4c-0.5,0.1-1.1,0.1-1.9,0.1
	s-1.4,0-1.9-0.1V36.3l0.2-0.1h10c0.1,0.4,0.1,0.9,0.1,1.5c0,0.6-0.2,1-0.5,1.3c-0.3,0.3-0.8,0.4-1.5,0.4H15.2z"/>
<path class="st16" d="M24.1,52.1V36.2c0.5-0.1,1.1-0.1,1.9-0.1c0.8,0,1.4,0,1.9,0.1v15.9c-0.5,0.1-1.1,0.1-1.9,0.1
	C25.2,52.2,24.5,52.2,24.1,52.1z"/>
<path class="st16" d="M37.3,48.9h4c0,0.6,0,1.2-0.1,1.6c-0.1,0.4-0.3,0.8-0.7,1.1c-0.4,0.3-1,0.5-1.7,0.5h-5.3
	c-0.7,0-1.2-0.2-1.6-0.6c-0.4-0.4-0.6-0.9-0.6-1.6V36.2l0.2-0.2h1.4c1.5,0,2.2,0.8,2.2,2.4V49C35.8,49,36.5,48.9,37.3,48.9z"/>
<path class="st16" d="M47.2,47.4l0,1.7v0c0.7,0,1.3,0,1.7,0h5.4c0,0.6,0,1-0.1,1.3c-0.2,1.2-1,1.8-2.4,1.8h-6.2
	c-0.7,0-1.2-0.2-1.6-0.6c-0.4-0.4-0.6-0.9-0.6-1.6V36.3l0.2-0.2h10c0.1,0.5,0.1,0.9,0.1,1.5s-0.1,1.1-0.3,1.7h-6.3l0,1.7v1.6
	c0.4,0,0.9,0,1.6,0h3.5c0.1,0.4,0.2,0.9,0.2,1.5c0,0.6-0.1,1.1-0.2,1.5h-5.1V47.4z"/>
<path class="st16" d="M55.5,50.7c0-0.5,0.2-1,0.5-1.5c0.3-0.5,0.6-0.9,1-1.3c1.7,1,3.2,1.5,4.7,1.5c0.7,0,1.1-0.1,1.4-0.4
	s0.5-0.7,0.5-1.1c0-0.7-0.5-1.3-1.5-1.7L59.3,45c-1.1-0.5-1.9-1.1-2.5-1.7c-0.6-0.7-0.9-1.5-0.9-2.6c0-0.7,0.1-1.4,0.4-2
	c0.3-0.6,0.7-1.1,1.2-1.5c0.5-0.4,1.1-0.8,1.9-1c0.7-0.2,1.5-0.4,2.4-0.4c1.7,0,3.5,0.4,5.3,1.3c-0.1,1.2-0.5,2.1-1.3,2.8
	c-1.6-0.8-3-1.1-4.2-1.1c-0.6,0-1.1,0.1-1.4,0.4c-0.3,0.3-0.5,0.6-0.5,1c0,0.6,0.5,1.1,1.4,1.5l2.8,1.2c1.2,0.5,2.1,1.1,2.6,1.9
	c0.6,0.8,0.9,1.7,0.9,2.7c0,0.7-0.1,1.4-0.4,2c-0.3,0.6-0.7,1.1-1.2,1.6c-0.5,0.4-1.2,0.8-1.9,1c-0.8,0.2-1.7,0.4-2.7,0.4
	C59.2,52.4,57.3,51.9,55.5,50.7z"/>
</svg>
