<?xml version="1.0" encoding="utf-8"?>
<!-- Generator: Adobe Illustrator 19.1.0, SVG Export Plug-In . SVG Version: 6.00 Build 0)  -->
<svg version="1.1" id="Layer_1" xmlns="http://www.w3.org/2000/svg" xmlns:xlink="http://www.w3.org/1999/xlink" x="0px" y="0px"
	 viewBox="0 0 172.9 163.7" style="enable-background:new 0 0 172.9 163.7;" xml:space="preserve">
<style type="text/css">
	.st0{opacity:5.000000e-02;fill:#FFC82E;}
	.st1{fill:#968B83;}
	.st2{fill:#FFC82E;}
	.st3{fill:none;stroke:#FFC82E;stroke-width:5;stroke-miterlimit:10;}
	.st4{fill:none;stroke:#FFC82E;stroke-width:22.0845;stroke-miterlimit:10;}
	.st5{fill:none;stroke:#FFC82E;stroke-width:16;stroke-miterlimit:10;}
	.st6{fill:none;stroke:#968B83;stroke-width:9;stroke-miterlimit:10;}
	.st7{fill:none;stroke:#968B83;stroke-width:6.364;stroke-miterlimit:10;}
	.st8{fill:none;stroke:#FFC82E;stroke-width:6.3102;stroke-miterlimit:10;}
	.st9{fill:none;stroke:#FFC82E;stroke-width:3.6422;stroke-miterlimit:10;}
	.st10{fill:none;stroke:#968B83;stroke-width:9.0531;stroke-miterlimit:10;}
	.st11{fill:none;stroke:#FFC82E;stroke-width:5.4724;stroke-miterlimit:10;}
	.st12{fill:none;stroke:#FFC82E;stroke-width:2.7362;stroke-miterlimit:10;}
	.st13{fill:#FFC82E;stroke:#FFC82E;stroke-width:5;stroke-miterlimit:10;}
	.st14{fill:none;stroke:#968B83;stroke-width:8.3796;stroke-miterlimit:10;}
	.st15{fill:none;stroke:#968B83;stroke-width:5.9252;stroke-miterlimit:10;}
	.st16{fill:#FFFFFF;}
	.st17{opacity:0.31;fill:#FFFFFF;}
	.st18{fill:#F5F5F5;}
	.st19{fill:none;}
	.st20{fill-rule:evenodd;clip-rule:evenodd;fill:#FFFFFF;}
	.st21{fill:#6ECAC9;}
</style>
<path class="st16" d="M86.6,29.2l21,35.9l21,35.9L87,101.2l-41.6,0.2L66,65.3L86.6,29.2 M86.5,9.2L57.3,60.4l-29.2,51.2l58.9-0.3
	l58.9-0.3l-29.7-50.9L86.5,9.2L86.5,9.2z"/>
<polygon class="st16" points="86.5,10.2 110.3,50.9 63.1,51.2 "/>
<path class="st16" d="M86.5,11.2L98,30.8l11.5,19.6l-22.7,0.1L64,50.7l11.3-19.7L86.5,11.2 M86.5,9.2L74.4,30.4L62.3,51.7l24.5-0.1
	l24.5-0.1L98.9,30.3L86.5,9.2L86.5,9.2z"/>
<polygon class="st16" points="52.5,70 76.3,110.8 29.1,111 "/>
<path class="st16" d="M52.5,71L64,90.6l11.5,19.6l-22.7,0.1L30,110.5l11.3-19.7L52.5,71 M52.5,69L40.4,90.3l-12.1,21.2l24.5-0.1
	l24.5-0.1L64.9,90.1L52.5,69L52.5,69z"/>
<polygon class="st16" points="121.3,69.7 145.1,110.5 97.9,110.7 "/>
<path class="st16" d="M121.3,70.7l11.5,19.6l11.5,19.6l-22.7,0.1l-22.7,0.1l11.3-19.7L121.3,70.7 M121.3,68.7l-12.1,21.2l-12.1,21.2
	l24.5-0.1l24.5-0.1l-12.3-21.1L121.3,68.7L121.3,68.7z"/>
<path class="st16" d="M34.9,163.7H5.7c-3.1,0-5.7-2.5-5.7-5.7V5.7C0,2.5,2.5,0,5.7,0h29.3c0.8,0,1.5,0.7,1.5,1.5S35.8,3,34.9,3H5.7
	C4.2,3,3,4.2,3,5.7v152.4c0,1.5,1.2,2.7,2.7,2.7h29.3c0.8,0,1.5,0.7,1.5,1.5S35.8,163.7,34.9,163.7z"/>
<path class="st16" d="M167.2,163.7h-29.3c-0.8,0-1.5-0.7-1.5-1.5s0.7-1.5,1.5-1.5h29.3c1.5,0,2.7-1.2,2.7-2.7V5.7
	c0-1.5-1.2-2.7-2.7-2.7h-29.3c-0.8,0-1.5-0.7-1.5-1.5s0.7-1.5,1.5-1.5h29.3c3.1,0,5.7,2.5,5.7,5.7v152.4
	C172.9,161.2,170.3,163.7,167.2,163.7z"/>
<path class="st16" d="M146.7,138.1H26.9c-2.8,0-5-2.2-5-5s2.2-5,5-5h119.8c2.8,0,5,2.2,5,5S149.5,138.1,146.7,138.1z"/>
</svg>
