<?xml version="1.0" encoding="utf-8"?>
<!-- Generator: Adobe Illustrator 19.1.0, SVG Export Plug-In . SVG Version: 6.00 Build 0)  -->
<svg version="1.1" id="Layer_1" xmlns="http://www.w3.org/2000/svg" xmlns:xlink="http://www.w3.org/1999/xlink" x="0px" y="0px"
	 viewBox="0 0 172.9 163.7" style="enable-background:new 0 0 172.9 163.7;" xml:space="preserve">
<style type="text/css">
	.st0{opacity:5.000000e-02;fill:#FFC82E;}
	.st1{fill:#968B83;}
	.st2{fill:#FFC82E;}
	.st3{fill:none;stroke:#FFC82E;stroke-width:5;stroke-miterlimit:10;}
	.st4{fill:none;stroke:#FFC82E;stroke-width:22.0845;stroke-miterlimit:10;}
	.st5{fill:none;stroke:#FFC82E;stroke-width:16;stroke-miterlimit:10;}
	.st6{fill:none;stroke:#968B83;stroke-width:9;stroke-miterlimit:10;}
	.st7{fill:none;stroke:#968B83;stroke-width:6.364;stroke-miterlimit:10;}
	.st8{fill:none;stroke:#FFC82E;stroke-width:6.3102;stroke-miterlimit:10;}
	.st9{fill:none;stroke:#FFC82E;stroke-width:3.6422;stroke-miterlimit:10;}
	.st10{fill:none;stroke:#968B83;stroke-width:9.0531;stroke-miterlimit:10;}
	.st11{fill:none;stroke:#FFC82E;stroke-width:5.4724;stroke-miterlimit:10;}
	.st12{fill:none;stroke:#FFC82E;stroke-width:2.7362;stroke-miterlimit:10;}
	.st13{fill:#FFC82E;stroke:#FFC82E;stroke-width:5;stroke-miterlimit:10;}
	.st14{fill:none;stroke:#968B83;stroke-width:8.3796;stroke-miterlimit:10;}
	.st15{fill:none;stroke:#968B83;stroke-width:5.9252;stroke-miterlimit:10;}
	.st16{fill:#FFFFFF;}
	.st17{opacity:0.31;fill:#FFFFFF;}
	.st18{fill:#F5F5F5;}
	.st19{fill:none;}
	.st20{fill-rule:evenodd;clip-rule:evenodd;fill:#FFFFFF;}
	.st21{fill:#6ECAC9;}
</style>
<path class="st16" d="M34.9,163.7H5.7c-3.1,0-5.7-2.5-5.7-5.7V5.7C0,2.5,2.5,0,5.7,0h29.3c0.8,0,1.5,0.7,1.5,1.5S35.8,3,34.9,3H5.7
	C4.2,3,3,4.2,3,5.7v152.4c0,1.5,1.2,2.7,2.7,2.7h29.3c0.8,0,1.5,0.7,1.5,1.5S35.8,163.7,34.9,163.7z"/>
<path class="st16" d="M167.2,163.7h-29.3c-0.8,0-1.5-0.7-1.5-1.5s0.7-1.5,1.5-1.5h29.3c1.5,0,2.7-1.2,2.7-2.7V5.7
	c0-1.5-1.2-2.7-2.7-2.7h-29.3c-0.8,0-1.5-0.7-1.5-1.5s0.7-1.5,1.5-1.5h29.3c3.1,0,5.7,2.5,5.7,5.7v152.4
	C172.9,161.2,170.3,163.7,167.2,163.7z"/>
<path class="st16" d="M145.8,139.1H26c-2.8,0-5-2.2-5-5s2.2-5,5-5h119.8c2.8,0,5,2.2,5,5S148.5,139.1,145.8,139.1z"/>
<polygon class="st16" points="105.1,116.5 85.3,116.6 65.6,116.7 75.4,99.5 85.1,82.4 95.1,99.4 "/>
<path class="st16" d="M65.6,121.7c-1.8,0-3.4-0.9-4.3-2.5c-0.9-1.5-0.9-3.4,0-5l19.6-34.3c0.9-1.6,2.5-2.5,4.3-2.5
	c1.8,0,3.4,0.9,4.3,2.5l19.9,34.1c0.9,1.5,0.9,3.4,0,5c-0.9,1.6-2.5,2.5-4.3,2.5L65.6,121.7C65.6,121.7,65.6,121.7,65.6,121.7z
	 M85.2,92.4l-11,19.3l22.2-0.1L85.2,92.4z"/>
<polygon class="st16" points="58.7,56.2 45.3,56.2 31.9,56.3 38.5,44.7 45.2,33 51.9,44.6 "/>
<path class="st16" d="M31.9,61.3c-1.8,0-3.4-0.9-4.3-2.5c-0.9-1.5-0.9-3.4,0-5l13.3-23.3c0.9-1.6,2.5-2.5,4.3-2.5c0,0,0,0,0,0
	c1.8,0,3.4,0.9,4.3,2.5L63,53.7c0.9,1.5,0.9,3.4,0,5c-0.9,1.6-2.5,2.5-4.3,2.5L31.9,61.3C31.9,61.3,31.9,61.3,31.9,61.3z M45.2,43
	l-4.7,8.3l9.5,0L45.2,43z"/>
<polygon class="st16" points="138.8,56.4 124.9,56.5 111,56.5 117.9,44.4 124.8,32.4 131.8,44.4 "/>
<path class="st16" d="M111,61.5c-1.8,0-3.4-0.9-4.3-2.5c-0.9-1.5-0.9-3.4,0-5l13.8-24.2c0.9-1.6,2.5-2.5,4.3-2.5
	c1.8,0,3.4,0.9,4.3,2.5l14,24c0.9,1.5,0.9,3.4,0,5s-2.5,2.5-4.3,2.5L111,61.5C111,61.5,111,61.5,111,61.5z M124.8,42.4l-5.2,9.1
	l10.5-0.1L124.8,42.4z"/>
<path class="st16" d="M75.6,112.8c-1.6,0-3.2-0.8-4.2-2.3L41.3,63.9c-1.5-2.3-0.8-5.4,1.5-6.9c2.3-1.5,5.4-0.8,6.9,1.5L79.8,105
	c1.5,2.3,0.8,5.4-1.5,6.9C77.5,112.5,76.5,112.8,75.6,112.8z"/>
<path class="st16" d="M98,113c-0.8,0-1.7-0.2-2.4-0.6c-2.4-1.4-3.3-4.4-1.9-6.8l27.1-48.3c1.4-2.4,4.4-3.3,6.8-1.9
	c2.4,1.4,3.3,4.4,1.9,6.8l-27.1,48.3C101.5,112.1,99.8,113,98,113z"/>
</svg>
