<?xml version="1.0" encoding="utf-8"?>
<!-- Generator: Adobe Illustrator 19.1.0, SVG Export Plug-In . SVG Version: 6.00 Build 0)  -->
<svg version="1.1" id="Layer_1" xmlns="http://www.w3.org/2000/svg" xmlns:xlink="http://www.w3.org/1999/xlink" x="0px" y="0px"
	 viewBox="0 0 532.6 461.3" style="enable-background:new 0 0 532.6 461.3;" xml:space="preserve">
<style type="text/css">
	.st0{opacity:5.000000e-02;fill:#FFC82E;}
	.st1{fill:#968B83;}
	.st2{fill:#FFC82E;}
	.st3{fill:none;stroke:#FFC82E;stroke-width:5;stroke-miterlimit:10;}
	.st4{fill:none;stroke:#FFC82E;stroke-width:22.0845;stroke-miterlimit:10;}
	.st5{fill:none;stroke:#FFC82E;stroke-width:16;stroke-miterlimit:10;}
	.st6{fill:none;stroke:#968B83;stroke-width:9;stroke-miterlimit:10;}
	.st7{fill:none;stroke:#968B83;stroke-width:6.364;stroke-miterlimit:10;}
	.st8{fill:none;stroke:#FFC82E;stroke-width:6.3102;stroke-miterlimit:10;}
	.st9{fill:none;stroke:#FFC82E;stroke-width:3.6422;stroke-miterlimit:10;}
	.st10{fill:none;stroke:#968B83;stroke-width:9.0531;stroke-miterlimit:10;}
	.st11{fill:none;stroke:#FFC82E;stroke-width:5.4724;stroke-miterlimit:10;}
	.st12{fill:none;stroke:#FFC82E;stroke-width:2.7362;stroke-miterlimit:10;}
	.st13{fill:#FFC82E;stroke:#FFC82E;stroke-width:5;stroke-miterlimit:10;}
	.st14{fill:none;stroke:#968B83;stroke-width:8.3796;stroke-miterlimit:10;}
	.st15{fill:none;stroke:#968B83;stroke-width:5.9252;stroke-miterlimit:10;}
	.st16{fill:#FFFFFF;}
	.st17{opacity:0.31;fill:#FFFFFF;}
	.st18{fill:#F5F5F5;}
	.st19{fill:none;}
	.st20{fill-rule:evenodd;clip-rule:evenodd;fill:#FFFFFF;}
	.st21{fill:#6ECAC9;}
</style>
<polygon class="st17" points="267.4,222.6 273.5,212 279.6,201.4 267.4,201.4 255.2,201.4 261.3,212 "/>
<polygon class="st17" points="377.4,307.2 365.2,307.2 371.3,317.8 377.4,328.4 383.5,317.8 389.6,307.2 "/>
<polygon class="st17" points="365.2,349.6 371.3,360.1 377.4,370.7 383.6,360.1 389.7,349.6 377.4,349.6 "/>
<polygon class="st17" points="188,296.7 194.2,307.3 200.3,296.7 206.4,286.1 194.2,286.1 181.9,286.1 "/>
<polygon class="st17" points="230.8,328.5 218.5,328.5 206.3,328.5 212.4,339.1 218.5,349.6 224.7,339.1 "/>
<polygon class="st17" points="236.9,360.2 243.1,349.6 230.8,349.6 218.6,349.6 224.7,360.2 230.8,370.8 "/>
<path class="st17" d="M243,264.9l6.1-10.6l6.1-10.6H243h-12.2l0,0l0,0h-12.2h-12.2l6.1,10.6l6.1,10.6l0,0h12.2L243,264.9L243,264.9z
	 M224.7,254.3l-2.2,3.8L224.7,254.3l5.8-10L224.7,254.3z"/>
<path class="st17" d="M194.1,222.6L194.1,222.6L194.1,222.6L194.1,222.6L194.1,222.6l6.1,10.6l6.1,10.6l6.1-10.6l6.1-10.6h0l0,0
	l6.1-10.6l6.1-10.6h0l-6.1-10.6l-6.1-10.6h48.2h0.6l-6.1,10.6l-6.1,10.6h12.2h12.2l-6.1-10.6l-6.1-10.6h0l6.1,10.6l6.1,10.6
	l6.1-10.6l0.3-0.5l-0.3,0.5l-6.1,10.6h12.2H304l-6.1-10.6l-6.1-10.6h24.4l-6.1,10.6l-6.1,10.6h0l0,0l-6.1,10.6l-6.1,10.5h0l0,0l0,0
	l0,0v0h0l0,0l0,0h-12.2h-12.2l6.1,10.6l5.4,9.3l-5.4-9.3l-6.1-10.6l0,0l-6.1-10.6l-6.1-10.6l-6.1,10.6l-6.1,10.6h12.2h12.2
	l-6.1,10.6l-6.1,10.6h12.2h12.2l0,0l0,0l0,0h12.2H304l0,0l6.1-10.6l6.1-10.6h0l0,0l0,0h0v0l6.1-10.6l6.1-10.6l6.1,10.5l6.1,10.5
	h-12.1h-12.2l6.1,10.6l6.1,10.6l0,0h12.2H353l-6.1-10.6l-6.1-10.5h12.2h12.2l-6.1-10.6l-6.1-10.6l-6.1,10.6l-6.1,10.5h0l6.1-10.5
	l6.1-10.6h-12.2h-12.2l0,0h12.2h12.2l-6.1-10.6l-6.1-10.5h0l-37-64.1l-37-64.1l-37,64.1l-37,64.1h25.8l-6.1,10.6l-6.1,10.6h0l0,0
	l0,0h-12.2h-12.2l0,0l-6.1,10.6l-6.1,10.6h12.2H194.1z M291.8,222.6L291.8,222.6l1.1,1.9L291.8,222.6z M310.2,212.1l-3.3-5.6
	L310.2,212.1l2.9,5.1L310.2,212.1z M217,166.3l24.9-43.1l24.8-43.1l24.8,43.1l24.9,43.1h-49.7H217z M200.2,212l6.1-10.6l0,0
	L200.2,212l-2.3,4L200.2,212z"/>
<polygon class="st17" points="242.9,222.6 236.8,212 230.7,201.4 224.6,212 218.5,222.6 230.7,222.6 "/>
<polygon class="st17" points="181.9,243.8 175.8,233.2 169.7,222.6 163.5,233.2 157.4,243.8 169.7,243.8 "/>
<polygon class="st17" points="206.3,243.8 218.6,243.8 230.8,243.8 224.7,233.2 218.6,222.6 212.4,233.2 "/>
<polygon class="st17" points="218.5,264.9 212.4,254.3 206.3,243.8 200.2,254.3 194.1,264.9 206.3,264.9 "/>
<polygon class="st17" points="304.1,243.7 298,254.3 291.9,264.9 291.9,264.9 298,275.4 304.1,286 310.2,275.4 316.3,264.9 
	316.3,264.9 310.2,254.3 "/>
<polygon class="st17" points="353,243.7 365.2,243.7 377.4,243.7 371.3,254.2 365.2,264.8 377.4,264.8 389.6,264.8 383.5,254.2 
	377.4,243.7 377.4,243.7 371.3,233.1 365.2,222.5 359.1,233.1 "/>
<polygon class="st17" points="389.6,307.2 389.6,307.2 383.5,317.8 377.4,328.4 389.6,328.4 401.9,328.4 401.9,328.4 408,317.8 
	414.1,307.2 401.9,307.2 389.7,307.2 389.7,307.2 401.8,307.2 414.1,307.2 408,296.6 401.8,286 395.7,296.6 "/>
<polygon class="st17" points="157.5,286.1 151.4,275.5 145.3,265 145.3,265 151.4,275.5 157.5,286.1 163.6,275.5 169.7,265 
	169.7,265 169.7,265 181.9,265 194.1,265 188,254.4 181.9,243.8 181.9,243.8 169.7,243.8 157.5,243.8 163.6,254.4 169.7,264.9 
	169.7,264.9 163.6,254.4 157.5,243.8 151.4,254.4 145.3,264.9 145.2,264.9 145.3,265 145.2,265 145.2,264.9 139.1,275.5 133,286.1 
	145.2,286.1 "/>
<polygon class="st17" points="230.8,286.1 224.7,275.5 218.6,264.9 212.5,275.5 206.4,286.1 206.4,286.1 200.3,296.7 194.2,307.2 
	206.4,307.2 218.6,307.2 212.5,296.7 206.4,286.1 218.6,286.1 "/>
<polygon class="st17" points="157.5,286.1 151.4,296.7 145.3,307.3 157.5,307.3 169.7,307.3 163.6,296.7 "/>
<polygon class="st17" points="260.1,297.8 253.8,308.7 266.4,308.7 279,308.7 272.7,297.8 266.4,286.8 "/>
<polygon class="st17" points="218.6,349.6 212.5,360.2 206.4,370.8 218.6,370.8 230.8,370.8 224.7,360.2 "/>
<polygon class="st17" points="181.9,328.4 188,317.9 189.3,315.6 188,317.9 181.9,328.5 194.2,328.5 206.4,328.5 200.3,317.9 
	194.2,307.3 194.2,307.3 194.2,307.3 194.2,307.3 194.2,307.3 181.9,307.3 169.7,307.3 175.8,317.9 "/>
<path class="st17" d="M181.9,391.9h12.2l0,0l-6.1,10.5l-6.1,10.6h12.2h12.2l-6.1-10.6l-6.1-10.6l6.1-10.5l6.1-10.6h-12.2h-12.2l0,0
	l-6.1,10.6l-6.1,10.5l-12.6-21.8l-11.8-20.5h12.2h12.2l0,0h0l6.1,10.5l6.1,10.6l6.1-10.6l0.1-0.2l-0.1,0.2l-6.1,10.6h12.2h12.2
	l-6.1-10.6l-6.1-10.6l0,0h0L188,339l-6.1-10.6l0,0h0l-6.1-10.6l-6.1-10.6l-6.1,10.6l-6.1,10.6h0l0,0l-6.1,10.6l-6.1,10.5l-12.2-21.2
	h12.2h12.2l-6.1-10.6l-1.9-3.3l1.9,3.3l6.1,10.6l6.1-10.6l6.1-10.6v0h-12.2h-12.2v0v0h0h0l-6.1,10.6l-6.1,10.6L120.1,306l-37,64.1
	l-37,64.1h74h74l-24.4-42.3H181.9z M169.8,420.2h-49.7H70.4l24.9-43l24.8-43l24.9,43L169.8,420.2z"/>
<polygon class="st17" points="255.3,413.1 261.4,402.5 267.5,391.9 267.5,391.9 261.4,381.4 255.3,370.8 249.2,381.4 243.1,391.9 
	243,391.9 236.9,381.4 230.8,370.8 224.7,381.4 218.6,391.9 218.6,391.9 218.6,391.9 224.8,402.5 230.7,412.8 224.7,402.5 
	218.6,391.9 212.5,402.5 206.4,413.1 206.4,413.1 206.4,413.1 206.4,413.1 194.2,413.1 181.9,413.1 188.1,423.7 194.2,434.2 
	194.2,434.2 206.4,434.2 218.6,434.2 218.6,434.3 224.7,423.7 230.8,413.1 230.9,413.1 230.9,413.1 237,402.5 243.1,392 
	249.1,402.5 255.2,413.1 249.2,423.7 243,434.2 255.3,434.2 267.5,434.2 261.4,423.7 "/>
<polygon class="st17" points="279.7,413.1 279.7,413.1 273.6,402.5 267.5,391.9 261.4,402.5 255.3,413.1 255.3,413.1 261.4,423.7 
	267.5,434.2 273.6,423.7 278.9,414.4 273.6,423.7 267.5,434.2 279.7,434.2 291.9,434.2 285.8,423.7 "/>
<path class="st17" d="M304.2,413.1h12.2h12.2l-6.1-10.6l-6.1-10.6l0,0l6.1,10.6l6.1,10.6l6.1-10.6l6.1-10.6H353h12.2l-6.1-10.6
	l-6.1-10.6l0,0h12.2h12.2l-6.1-10.6l-6.1-10.6l-6.1,10.6l-6.1,10.6l-6.1-10.6l-6.1-10.6l-6.1,10.6l-6.1,10.6l-6.1-10.6l-6.1-10.6
	h12.2h12.2l0,0H353h12.2l-3.8-6.5l3.8,6.5l6.1-10.6l6.1-10.6h0l-6.1-10.6l-6.1-10.6l-6.1,10.6l-6.1,10.5l-6.1-10.6l-6.1-10.6h0l0,0
	H353h12.2l0,0l6.1-10.6l6.1-10.6h0l6.1,10.6l6.1,10.6l6.1-10.6l6.1-10.6h-12.2h-12.2v0h0l0,0l6.1-10.6l6.1-10.6h-12.2h-12.2h0H353
	h-12.2l6.1-10.6l6.1-10.6h-12.2h-12.2l0,0l-6.1,10.6l-6.1,10.6h0l6.1,10.6l6.1,10.6l6.1-10.6l6.1-10.5l6.1,10.5L353,286l6.1-10.6
	l6.1-10.6l0,0l-6.1,10.6L353,286h0l0,0l-6.1,10.6l-6.1,10.6l-6.1-10.6l-6.1-10.6l0,0l-6.1,10.6l-6.1,10.6h0l0,0v0l0,0l6.1,10.6
	l6.1,10.6l6.1-10.6l6.1-10.6l0,0l-6.1,10.6l-6.1,10.6h12.2H353l0,0h-12.2h-12.2l0,0h-12.2h-1.1L266.6,244l-48.7,84.4h13l-6.1,10.6
	l-6.1,10.6h12.2h12.2l0,0h12.2h12.2l0,0l-6.1,10.6l-6.1,10.6h12.2h12.2l6.1,10.5l6.1,10.6l6.1-10.6l6.1-10.6h0l0,0l0,0h0l-6.1-10.6
	l-6.1-10.6l0,0l-6.1-10.6l-6.1-10.6h24.4l6.1,10.5l6.1,10.6l6.1-10.6l6.1-10.6l0,0l-6.1,10.6l-6.1,10.6h0l-6.1,10.6l-6.1,10.6h12.2
	h12.2l0,0h0l6.1,10.6l6.1,10.6l0,0l-6.1-10.6l-6.1-10.6l-6.1,10.6l-6.1,10.6h-12.2h-12.2l6.1,10.6L304.2,413.1L304.2,413.1
	L304.2,413.1l-6.1-10.6l-6.1-10.6l-6.1,10.6l-6.1,10.6h12.2H304.2l-6.1,10.6l-6.1,10.6h12.2h12.2l-6.1-10.6L304.2,413.1z M353,328.4
	l2.7,4.7L353,328.4L353,328.4z M334.7,254.3l-5.4-9.4L334.7,254.3l5.6,9.7L334.7,254.3z M285.8,360.1l1.7-3L285.8,360.1l-1.4,2.4
	L285.8,360.1z M249.2,339l-6.1,10.6L237,339l-6.1-10.6h24.4L249.2,339z M273.6,339l-6.1,10.6h0l-6.1-10.6l-6.1-10.6h0l6.1,10.5
	l6.1,10.6L273.6,339l6.1-10.6h0L273.6,339z M243,313.9l23.6-40.8l23.6,40.8H243z M316.4,391.9h12.2h12.2l0,0h-12.2H316.4
	L316.4,391.9z"/>
<polygon class="st17" points="316.4,264.9 310.2,275.5 304.1,286 316.4,286 328.6,286 322.5,275.5 "/>
<polygon class="st17" points="288.1,149 277.4,130.6 266.7,112 256.1,130.6 245.4,149 266.7,149 "/>
<polygon class="st17" points="120.1,366 109.5,384.5 98.8,403 120.1,403 141.5,403 130.8,384.5 "/>
<path class="st17" d="M487.4,434.2l-36.6-63.5l-36.7-63.5l-36.6,63.5l-36.7,63.5l-6.1-10.6l-6.1-10.6l0,0h-12.2h-12.2l6.1,10.6
	l6.1,10.6l0,0h12.2h12.2l0,0h73.3H487.4z M389.5,377.7l24.6-42.6l24.6,42.6l24.6,42.6h-49.2h-49.2L389.5,377.7z"/>
<polygon class="st17" points="435.3,403.3 424.7,385 414.1,366.7 403.6,385 393,403.3 414.1,403.3 "/>
<g>
	<path class="st16" d="M532.6,461.3H0l133.3-230.6L266.5,0L532.6,461.3z M6.9,457.3h518.8L396.1,232.7L266.5,8L136.8,232.7
		L6.9,457.3z"/>
</g>
<g>
	<g>
		<path class="st16" d="M241.8,72.4c-0.3,0-0.7-0.1-1-0.3c-1-0.6-1.3-1.8-0.7-2.7l26.3-45.5l26.3,45.5c0.6,1,0.2,2.2-0.7,2.7
			c-1,0.6-2.2,0.2-2.7-0.7l-22.8-39.5l-22.8,39.5C243.2,72,242.5,72.4,241.8,72.4z"/>
	</g>
</g>
<g>
	<g>
		<path class="st16" d="M73.7,449.2C73.7,449.2,73.7,449.2,73.7,449.2l-52.6-0.4l26.6-45.3c0.6-1,1.8-1.3,2.7-0.7
			c1,0.6,1.3,1.8,0.7,2.7L28,444.8l45.6,0.3c1.1,0,2,0.9,2,2C75.7,448.3,74.8,449.2,73.7,449.2z"/>
	</g>
</g>
<g>
	<g>
		<path class="st16" d="M458.7,450.6c-1.1,0-2-0.9-2-2c0-1.1,0.9-2,2-2l45.6-0.5l-23.3-39.3c-0.6-1-0.2-2.2,0.7-2.7
			c0.9-0.6,2.2-0.2,2.7,0.7l26.8,45.2L458.7,450.6C458.8,450.6,458.7,450.6,458.7,450.6z"/>
	</g>
</g>
<g>
	<path class="st16" d="M333,172.2H198.2c-1.1,0-2-0.9-2-2s0.9-2,2-2H333c1.1,0,2,0.9,2,2S334.1,172.2,333,172.2z"/>
</g>
<g>
	<path class="st16" d="M296.7,161h-62.1c-1.1,0-2-0.9-2-2s0.9-2,2-2h62.1c1.1,0,2,0.9,2,2S297.8,161,296.7,161z"/>
</g>
<g>
	<path class="st16" d="M274.6,149.4h-18.1c-1.1,0-2-0.9-2-2s0.9-2,2-2h18.1c1.1,0,2,0.9,2,2S275.8,149.4,274.6,149.4z"/>
</g>
<g>
	<path class="st16" d="M438.7,353.4H92.6c-1.1,0-2-0.9-2-2s0.9-2,2-2h346.1c1.1,0,2,0.9,2,2S439.8,353.4,438.7,353.4z"/>
</g>
<g>
	<path class="st16" d="M296.7,364.6h-62.1c-1.1,0-2-0.9-2-2s0.9-2,2-2h62.1c1.1,0,2,0.9,2,2S297.8,364.6,296.7,364.6z"/>
</g>
<g>
	<path class="st16" d="M274.6,376.2h-18.1c-1.1,0-2-0.9-2-2s0.9-2,2-2h18.1c1.1,0,2,0.9,2,2S275.8,376.2,274.6,376.2z"/>
</g>
</svg>
