<?xml version="1.0" encoding="utf-8"?>
<!-- Generator: Adobe Illustrator 19.1.0, SVG Export Plug-In . SVG Version: 6.00 Build 0)  -->
<svg version="1.1" id="Layer_1" xmlns="http://www.w3.org/2000/svg" xmlns:xlink="http://www.w3.org/1999/xlink" x="0px" y="0px"
	 viewBox="0 0 124.9 118.4" style="enable-background:new 0 0 124.9 118.4;" xml:space="preserve">
<style type="text/css">
	.st0{opacity:5.000000e-02;fill:#FFC82E;}
	.st1{fill:#968B83;}
	.st2{fill:#FFC82E;}
	.st3{fill:none;stroke:#FFC82E;stroke-width:5;stroke-miterlimit:10;}
	.st4{fill:none;stroke:#FFC82E;stroke-width:22.0845;stroke-miterlimit:10;}
	.st5{fill:none;stroke:#FFC82E;stroke-width:16;stroke-miterlimit:10;}
	.st6{fill:none;stroke:#968B83;stroke-width:9;stroke-miterlimit:10;}
	.st7{fill:none;stroke:#968B83;stroke-width:6.364;stroke-miterlimit:10;}
	.st8{fill:none;stroke:#FFC82E;stroke-width:6.3102;stroke-miterlimit:10;}
	.st9{fill:none;stroke:#FFC82E;stroke-width:3.6422;stroke-miterlimit:10;}
	.st10{fill:none;stroke:#968B83;stroke-width:9.0531;stroke-miterlimit:10;}
	.st11{fill:none;stroke:#FFC82E;stroke-width:5.4724;stroke-miterlimit:10;}
	.st12{fill:none;stroke:#FFC82E;stroke-width:2.7362;stroke-miterlimit:10;}
	.st13{fill:#FFC82E;stroke:#FFC82E;stroke-width:5;stroke-miterlimit:10;}
	.st14{fill:none;stroke:#968B83;stroke-width:8.3796;stroke-miterlimit:10;}
	.st15{fill:none;stroke:#968B83;stroke-width:5.9252;stroke-miterlimit:10;}
	.st16{fill:#FFFFFF;}
	.st17{opacity:0.31;fill:#FFFFFF;}
	.st18{fill:#F5F5F5;}
	.st19{fill:none;}
	.st20{fill-rule:evenodd;clip-rule:evenodd;fill:#FFFFFF;}
	.st21{fill:#6ECAC9;}
</style>
<path class="st16" d="M25.5,118.4h-21c-2.5,0-4.5-2-4.5-4.5V4.5C0,2,2,0,4.5,0h21C26.3,0,27,0.7,27,1.5S26.3,3,25.5,3h-21
	C3.7,3,3,3.7,3,4.5v109.4c0,0.8,0.7,1.5,1.5,1.5h21c0.8,0,1.5,0.7,1.5,1.5S26.3,118.4,25.5,118.4z"/>
<path class="st16" d="M120.4,118.4h-21c-0.8,0-1.5-0.7-1.5-1.5s0.7-1.5,1.5-1.5h21c0.8,0,1.5-0.7,1.5-1.5V4.5c0-0.8-0.7-1.5-1.5-1.5
	h-21c-0.8,0-1.5-0.7-1.5-1.5S98.6,0,99.4,0h21c2.5,0,4.5,2,4.5,4.5v109.4C124.9,116.3,122.9,118.4,120.4,118.4z"/>
<path class="st20" d="M41.3,13c0.3-0.5,2.6-0.5,2.9,0C43.2,13,42.3,13,41.3,13z"/>
<path class="st20" d="M30.9,69.5c-0.5-14.7-0.5-31.4,0-46.1C30.9,38.8,30.9,54.1,30.9,69.5z"/>
<path class="st20" d="M54.6,59.3c11-0.7,23.3-0.1,34.8-0.3c-10.9,0.7-23.1,0.1-34.5,0.3C54.8,59.3,54.7,59.3,54.6,59.3z"/>
<path class="st20" d="M54.9,59.3c0,3.7,0,7.3,0,11c-0.7-3.1-0.1-7.4-0.3-11C54.7,59.3,54.8,59.3,54.9,59.3z"/>
<path class="st20" d="M58.7,104.5c10.6,0,21.3,0,31.9,0C80.6,105,68.6,105,58.7,104.5z"/>
<path class="st20" d="M54.6,22.8c0.7,3.6,0.1,8.4,0.3,12.5C54.2,31.7,54.8,26.9,54.6,22.8z"/>
<path class="st20" d="M30.9,23.4c0.9-6,4.1-9.8,10.4-10.4c1,0,1.9,0,2.9,0c6.2,0.6,9.3,4.2,10.4,9.9c0.2,4.1-0.4,8.9,0.3,12.5
	c6.7,0,12.6,0,19.7,0c5.8,0,13.7-1.2,18.5,0.9c9.8,4.1,8.8,22.3-3.8,22.9c-11.5,0.2-23.8-0.4-34.8,0.3c0.2,3.6-0.4,7.9,0.3,11
	c0.6,4.3,2.6,8.7,7.2,10.1c10.6,3.2,31.7-4.8,36.8,7c2.8,6.5-0.6,16.4-8.4,17.1c-10.6,0-21.3,0-31.9,0
	c-18.2-2.7-26.3-15.6-27.8-35.1C30.9,54.1,30.9,38.8,30.9,23.4z"/>
</svg>
